<svg version="1.1" xmlns="http://www.w3.org/2000/svg" width="1366" height="683"><defs><clipPath id="DOuZcbsbcirR"><path fill="none" stroke="none" d="M 77.5 26.5 L 1336.5 26.5 L 1336.5 624.5 L 77.5 624.5 L 77.5 26.5"/></clipPath><clipPath id="qWTwZeuuyhwI"><path fill="none" stroke="none" d="M 77.5 26.5 L 1336.5 26.5 L 1336.5 624.5 L 77.5 624.5 L 77.5 26.5"/></clipPath><clipPath id="CbUGZTWNSoqN"><path fill="none" stroke="none" d="M 77.5 26.5 L 1336.5 26.5 L 1336.5 624.5 L 77.5 624.5 L 77.5 26.5"/></clipPath><clipPath id="UAiuVPOGRuGr"><path fill="none" stroke="none" d="M 77.5 26.5 L 1336.5 26.5 L 1336.5 624.5 L 77.5 624.5 L 77.5 26.5"/></clipPath><clipPath id="NxOhBvUeNXbG"><path fill="none" stroke="none" d="M 77.5 26.5 L 1336.5 26.5 L 1336.5 624.5 L 77.5 624.5 L 77.5 26.5"/></clipPath><clipPath id="EJdxqaXlJcvE"><path fill="none" stroke="none" d="M 77.5 26.5 L 1336.5 26.5 L 1336.5 624.5 L 77.5 624.5 L 77.5 26.5"/></clipPath><clipPath id="EvlNiCVyEgzv"><path fill="none" stroke="none" d="M 77.5 26.5 L 1336.5 26.5 L 1336.5 624.5 L 77.5 624.5 L 77.5 26.5"/></clipPath><clipPath id="qoLmLcwbnyAP"><path fill="none" stroke="none" d="M 77.5 26.5 L 1336.5 26.5 L 1336.5 624.5 L 77.5 624.5 L 77.5 26.5"/></clipPath><clipPath id="TdWITZAcxgUu"><path fill="none" stroke="none" d="M 77.5 26.5 L 1336.5 26.5 L 1336.5 624.5 L 77.5 624.5 L 77.5 26.5"/></clipPath><clipPath id="sXpwkhxdkDZv"><path fill="none" stroke="none" d="M 77.5 26.5 L 1336.5 26.5 L 1336.5 624.5 L 77.5 624.5 L 77.5 26.5"/></clipPath><clipPath id="QwfBoFzWsaUz"><path fill="none" stroke="none" d="M 77.5 26.5 L 1336.5 26.5 L 1336.5 624.5 L 77.5 624.5 L 77.5 26.5 M 565.6123664220385 435.10665858585577 L 565.6123655478107 445.10665858585577 L 573.6123655478107 445.106659285238 L 573.6123664220385 435.10665928523804 L 569.6123657226562 443.1066589355469 L 565.6123664220385 435.10665858585577 M 573.612365023274 215.89332615535514 L 573.6123658975018 205.8933261553552 L 565.6123658975018 205.89332545597296 L 565.612365023274 215.8933254559729 L 569.6123657226562 207.89332580566406 L 573.612365023274 215.89332615535514 Z"/></clipPath><clipPath id="TvosfXcXqNxw"><path fill="none" stroke="none" d="M 77.5 26.5 L 1336.5 26.5 L 1336.5 624.5 L 77.5 624.5 L 77.5 26.5"/></clipPath><clipPath id="yuTpaKVToZNU"><path fill="none" stroke="none" d="M 77.5 26.5 L 1336.5 26.5 L 1336.5 624.5 L 77.5 624.5 L 77.5 26.5 M 1052.9052741368823 435.10665858585577 L 1052.9052732626544 445.10665858585577 L 1060.9052732626544 445.106659285238 L 1060.9052741368823 435.10665928523804 L 1056.9052734375 443.1066589355469 L 1052.9052741368823 435.10665858585577 M 1060.9052727381177 215.89332615535514 L 1060.9052736123456 205.8933261553552 L 1052.9052736123456 205.89332545597296 L 1052.9052727381177 215.8933254559729 L 1056.9052734375 207.89332580566406 L 1060.9052727381177 215.89332615535514 Z"/></clipPath><clipPath id="BmFTEdxzWlIX"><path fill="none" stroke="none" d="M 77.5 26.5 L 1336.5 26.5 L 1336.5 624.5 L 77.5 624.5 L 77.5 26.5"/></clipPath><clipPath id="caekVJooWMiE"><path fill="none" stroke="none" d="M 77.5 26.5 L 1336.5 26.5 L 1336.5 624.5 L 77.5 624.5 L 77.5 26.5 Z"/></clipPath><clipPath id="WLBSxowOBLtf"><path fill="none" stroke="none" d="M 77.5 26.5 L 1336.5 26.5 L 1336.5 624.5 L 77.5 624.5 L 77.5 26.5"/></clipPath><clipPath id="FoxBEylqJbov"><path fill="none" stroke="none" d="M 77.5 26.5 L 1336.5 26.5 L 1336.5 624.5 L 77.5 624.5 L 77.5 26.5 Z"/></clipPath></defs><path fill="rgb(255,255,255)" stroke="none" paint-order="stroke" d="M 0.5 0.5 L 1366.5 0.5 L 1366.5 683.5 L 0.5 683.5 L 0.5 0.5" fill-opacity="1"/><rect fill="#FFFFFF" stroke="none" x="77" y="26" width="1259" height="598" transform="matrix(1, 0, 0, 1, 0.5, 0.5)"/><path fill="rgb(255,255,255)" stroke="none" paint-order="stroke" d="M 77.5 26.5 L 1336.5 26.5 L 1336.5 624.5 L 77.5 624.5 L 77.5 26.5" fill-opacity="1"/><path fill="none" stroke="rgb(229,229,229)" paint-order="fill" d="M 77.5 26.5 L 1336.5 26.5 L 1336.5 624.5 L 77.5 624.5 L 77.5 26.5" stroke-opacity="1" stroke-linejoin="bevel" stroke-miterlimit="10" stroke-dasharray=""/><path fill="none" stroke="rgb(229,229,229)" paint-order="fill" d="M 257.5 624.5 L 257.5 26.5 M 617.5 624.5 L 617.5 26.5 M 976.5 624.5 L 976.5 26.5" stroke-opacity="1" stroke-linejoin="bevel" stroke-miterlimit="10" stroke-dasharray="" clip-path="url(#DOuZcbsbcirR)"/><path fill="none" stroke="rgb(229,229,229)" paint-order="fill" d="M 77.5 591.5 L 1336.5 591.5 M 77.5 458.5 L 1336.5 458.5 M 77.5 325.5 L 1336.5 325.5 M 77.5 192.5 L 1336.5 192.5 M 77.5 59.5 L 1336.5 59.5" stroke-opacity="1" stroke-linejoin="bevel" stroke-miterlimit="10" stroke-dasharray="" clip-path="url(#qWTwZeuuyhwI)"/><path fill="none" stroke="rgb(0,0,0)" paint-order="fill" d="M 113.47142791748047 325.5 L 3350.89990234375 325.5" stroke-opacity="1" stroke-linejoin="bevel" stroke-miterlimit="10" stroke-dasharray="" clip-path="url(#CbUGZTWNSoqN)"/><path fill="rgb(0,0,0)" stroke="none" paint-order="stroke" d="M 258.8571472167969 325.5 A 1.5 1.5 0 0 1 255.85714721679688 325.5 A 1.5 1.5 0 0 1 258.8571472167969 325.5" fill-opacity="1" clip-path="url(#UAiuVPOGRuGr)"/><path fill="none" stroke="rgb(0,0,255)" paint-order="fill" d="M 437.21429443359375 325.5 L 356.6382751464844 325.5 L 569.6123657226562 325.5 L 813.2587890625 325.5 L 1056.9052734375 325.5 L 1300.5517578125 325.5" stroke-opacity="1" stroke-linejoin="bevel" stroke-miterlimit="10" stroke-dasharray="" clip-path="url(#NxOhBvUeNXbG)"/><path fill="none" stroke="rgb(255,0,0)" paint-order="fill" d="M 437.21429443359375 316.37225341796875 L 355.75872802734375 316.37225341796875 L 569.6123657226562 243.23753356933594 L 813.2587890625 242.17657470703125 L 1056.9052734375 241.1156005859375 L 1300.5517578125 324.43902587890625" stroke-opacity="1" stroke-linejoin="bevel" stroke-miterlimit="10" stroke-dasharray="" clip-path="url(#EJdxqaXlJcvE)"/><path fill="none" stroke="rgb(255,0,0)" paint-order="fill" d="M 437.21429443359375 334.62774658203125 L 355.75872802734375 334.62774658203125 L 569.6123657226562 407.762451171875 L 813.2587890625 408.82342529296875 L 1056.9052734375 409.8843994140625 L 1300.5517578125 326.56097412109375" stroke-opacity="1" stroke-linejoin="bevel" stroke-miterlimit="10" stroke-dasharray="" clip-path="url(#EJdxqaXlJcvE)"/><path fill="none" stroke="rgb(0,0,0)" paint-order="fill" d="M 343.8140869140625 358.72222900390625 L 344.95159912109375 357.3662109375 L 346.0196838378906 356.01019287109375 L 347.0223083496094 354.6542053222656 L 347.96295166015625 353.2981872558594 L 348.8446350097656 351.9421691894531 L 349.6699523925781 350.586181640625 L 350.4413146972656 349.23016357421875 L 351.1607360839844 347.8741455078125 L 351.8301086425781 346.51812744140625 L 352.4510192871094 345.1621398925781 L 353.0249328613281 343.8061218261719 L 353.55316162109375 342.4501037597656 L 354.0368347167969 341.0941162109375 L 354.4769592285156 339.73809814453125 L 354.87445068359375 338.382080078125 L 355.2301025390625 337.02606201171875 L 355.5445861816406 335.6700744628906 L 355.8185119628906 334.3140563964844 L 356.0523986816406 332.9580383300781 L 356.2466735839844 331.60205078125 L 356.40167236328125 330.24603271484375 L 356.5176696777344 328.8900146484375 L 356.5948791503906 327.5340270996094 L 356.6334533691406 326.1780090332031 L 356.6334533691406 324.8219909667969 L 356.5948791503906 323.4659729003906 L 356.5176696777344 322.1099853515625 L 356.40167236328125 320.75396728515625 L 356.2466735839844 319.39794921875 L 356.0523986816406 318.0419616699219 L 355.8185119628906 316.6859436035156 L 355.5445861816406 315.3299255371094 L 355.2301025390625 313.97393798828125 L 354.87445068359375 312.617919921875 L 354.4769592285156 311.26190185546875 L 354.0368347167969 309.9058837890625 L 353.55316162109375 308.5498962402344 L 353.0249328613281 307.1938781738281 L 352.4510192871094 305.8378601074219 L 351.8301086425781 304.48187255859375 L 351.1607360839844 303.1258544921875 L 350.4413146972656 301.76983642578125 L 349.6699523925781 300.413818359375 L 348.8446350097656 299.0578308105469 L 347.96295166015625 297.7018127441406 L 347.0223083496094 296.3457946777344 L 346.0196838378906 294.98980712890625 L 344.95159912109375 293.6337890625 L 343.8140869140625 292.27777099609375" stroke-opacity="1" stroke-linejoin="bevel" stroke-miterlimit="10" stroke-dasharray="" clip-path="url(#EvlNiCVyEgzv)"/><path fill="none" stroke="rgb(0,0,0)" paint-order="fill" d="M 336.5920104980469 358.72222900390625 L 338.0737609863281 357.3662109375 L 339.4527893066406 356.01019287109375 L 340.7373962402344 354.6542053222656 L 341.9344177246094 353.2981872558594 L 343.0497131347656 351.9421691894531 L 344.0882873535156 350.586181640625 L 345.05438232421875 349.23016357421875 L 345.95172119140625 347.8741455078125 L 346.78350830078125 346.51812744140625 L 347.55255126953125 345.1621398925781 L 348.26129150390625 343.8061218261719 L 348.911865234375 342.4501037597656 L 349.5061950683594 341.0941162109375 L 350.0458984375 339.73809814453125 L 350.5323791503906 338.382080078125 L 350.96697998046875 337.02606201171875 L 351.3507080078125 335.6700744628906 L 351.6845703125 334.3140563964844 L 351.96929931640625 332.9580383300781 L 352.2055969238281 331.60205078125 L 352.3940124511719 330.24603271484375 L 352.5349426269531 328.8900146484375 L 352.62872314453125 327.5340270996094 L 352.6755676269531 326.1780090332031 L 352.6755676269531 324.8219909667969 L 352.62872314453125 323.4659729003906 L 352.5349426269531 322.1099853515625 L 352.3940124511719 320.75396728515625 L 352.2055969238281 319.39794921875 L 351.96929931640625 318.0419616699219 L 351.6845703125 316.6859436035156 L 351.3507080078125 315.3299255371094 L 350.96697998046875 313.97393798828125 L 350.5323791503906 312.617919921875 L 350.0458984375 311.26190185546875 L 349.5061950683594 309.9058837890625 L 348.911865234375 308.5498962402344 L 348.26129150390625 307.1938781738281 L 347.55255126953125 305.8378601074219 L 346.78350830078125 304.48187255859375 L 345.95172119140625 303.1258544921875 L 345.05438232421875 301.76983642578125 L 344.0882873535156 300.413818359375 L 343.0497131347656 299.0578308105469 L 341.9344177246094 297.7018127441406 L 340.7373962402344 296.3457946777344 L 339.4527893066406 294.98980712890625 L 338.0737609863281 293.6337890625 L 336.5920104980469 292.27777099609375" stroke-opacity="1" stroke-linejoin="bevel" stroke-miterlimit="10" stroke-dasharray="" clip-path="url(#EvlNiCVyEgzv)"/><path fill="none" stroke="rgb(0,0,0)" paint-order="fill" d="M 323.2843933105469 358.72222900390625 L 323.7608642578125 357.3662109375 L 324.2255554199219 356.01019287109375 L 324.6778259277344 354.6542053222656 L 325.11700439453125 353.2981872558594 L 325.5423889160156 351.9421691894531 L 325.95330810546875 350.586181640625 L 326.3489990234375 349.23016357421875 L 326.72869873046875 347.8741455078125 L 327.0916442871094 346.51812744140625 L 327.43707275390625 345.1621398925781 L 327.76416015625 343.8061218261719 L 328.0721435546875 342.4501037597656 L 328.36016845703125 341.0941162109375 L 328.6275329589844 339.73809814453125 L 328.8734436035156 338.382080078125 L 329.0971374511719 337.02606201171875 L 329.2979431152344 335.6700744628906 L 329.4752197265625 334.3140563964844 L 329.62835693359375 332.9580383300781 L 329.7568359375 331.60205078125 L 329.86016845703125 330.24603271484375 L 329.9380187988281 328.8900146484375 L 329.9900817871094 327.5340270996094 L 330.01617431640625 326.1780090332031 L 330.01617431640625 324.8219909667969 L 329.9900817871094 323.4659729003906 L 329.9380187988281 322.1099853515625 L 329.86016845703125 320.75396728515625 L 329.7568359375 319.39794921875 L 329.62835693359375 318.0419616699219 L 329.4752197265625 316.6859436035156 L 329.2979431152344 315.3299255371094 L 329.0971374511719 313.97393798828125 L 328.8734436035156 312.617919921875 L 328.6275329589844 311.26190185546875 L 328.36016845703125 309.9058837890625 L 328.0721435546875 308.5498962402344 L 327.76416015625 307.1938781738281 L 327.43707275390625 305.8378601074219 L 327.0916442871094 304.48187255859375 L 326.72869873046875 303.1258544921875 L 326.3489990234375 301.76983642578125 L 325.95330810546875 300.413818359375 L 325.5423889160156 299.0578308105469 L 325.11700439453125 297.7018127441406 L 324.6778259277344 296.3457946777344 L 324.2255554199219 294.98980712890625 L 323.7608642578125 293.6337890625 L 323.2843933105469 292.27777099609375" stroke-opacity="1" stroke-linejoin="bevel" stroke-miterlimit="10" stroke-dasharray="" clip-path="url(#EvlNiCVyEgzv)"/><path fill="none" stroke="rgb(0,0,0)" paint-order="fill" d="M 317.3121032714844 358.72222900390625 L 316.37432861328125 357.3662109375 L 315.4602966308594 356.01019287109375 L 314.57122802734375 354.6542053222656 L 313.7084045410156 353.2981872558594 L 312.8731384277344 351.9421691894531 L 312.06683349609375 350.586181640625 L 311.2908630371094 349.23016357421875 L 310.5467224121094 347.8741455078125 L 309.8358154296875 346.51812744140625 L 309.1596984863281 345.1621398925781 L 308.51983642578125 343.8061218261719 L 307.9177551269531 342.4501037597656 L 307.3549499511719 341.0941162109375 L 306.8328857421875 339.73809814453125 L 306.35296630859375 338.382080078125 L 305.9166259765625 337.02606201171875 L 305.52508544921875 335.6700744628906 L 305.17962646484375 334.3140563964844 L 304.8813171386719 332.9580383300781 L 304.6311340332031 331.60205078125 L 304.429931640625 330.24603271484375 L 304.2784118652344 328.8900146484375 L 304.1770935058594 327.5340270996094 L 304.1263427734375 326.1780090332031 L 304.1263427734375 324.8219909667969 L 304.1770935058594 323.4659729003906 L 304.2784118652344 322.1099853515625 L 304.429931640625 320.75396728515625 L 304.6311340332031 319.39794921875 L 304.8813171386719 318.0419616699219 L 305.17962646484375 316.6859436035156 L 305.52508544921875 315.3299255371094 L 305.9166259765625 313.97393798828125 L 306.35296630859375 312.617919921875 L 306.8328857421875 311.26190185546875 L 307.3549499511719 309.9058837890625 L 307.9177551269531 308.5498962402344 L 308.51983642578125 307.1938781738281 L 309.1596984863281 305.8378601074219 L 309.8358154296875 304.48187255859375 L 310.5467224121094 303.1258544921875 L 311.2908630371094 301.76983642578125 L 312.06683349609375 300.413818359375 L 312.8731384277344 299.0578308105469 L 313.7084045410156 297.7018127441406 L 314.57122802734375 296.3457946777344 L 315.4602966308594 294.98980712890625 L 316.37432861328125 293.6337890625 L 317.3121032714844 292.27777099609375" stroke-opacity="1" stroke-linejoin="bevel" stroke-miterlimit="10" stroke-dasharray="" clip-path="url(#EvlNiCVyEgzv)"/><path fill="none" stroke="rgb(0,0,0)" paint-order="fill" d="M 342.127685546875 292.27777099609375 L 337.5830383300781 283.746826171875 L 332.03582763671875 275.7376403808594 L 325.5553283691406 268.3503723144531 L 318.2225646972656 261.6772766113281 L 310.1291809082031 255.80177307128906 L 301.37628173828125 250.7972869873047 L 292.0732727050781 246.7263641357422 L 282.3364562988281 243.63987731933594 L 272.2874450683594 241.57640075683594 L 262.0518493652344 240.56170654296875 L 251.75758361816406 240.60848999023438 L 241.53329467773438 241.71617126464844 L 231.5067596435547 243.87088012695312 L 221.80328369140625 247.0457305908203 L 212.5441131591797 251.2010040283203 L 203.84498596191406 256.28480529785156 L 195.81459045410156 262.23358154296875 L 188.55328369140625 268.9729919433594 L 182.15182495117188 276.4188232421875 L 176.69021606445312 284.47802734375 L 172.2366943359375 293.0498962402344 L 168.846923828125 302.02728271484375 L 166.56326293945312 311.2980041503906 L 165.41424560546875 320.7461853027344 L 165.41424560546875 330.2538146972656 L 166.56326293945312 339.7019958496094 L 168.846923828125 348.97271728515625 L 172.2366943359375 357.9501037597656 L 176.69021606445312 366.52197265625 L 182.15182495117188 374.5811767578125 L 188.55328369140625 382.0270080566406 L 195.81459045410156 388.76641845703125 L 203.84498596191406 394.7152099609375 L 212.5441131591797 399.7989807128906 L 221.80328369140625 403.95428466796875 L 231.5067596435547 407.1291198730469 L 241.53329467773438 409.2838439941406 L 251.75758361816406 410.3915100097656 L 262.0518493652344 410.43829345703125 L 272.2874450683594 409.4236145019531 L 282.3364562988281 407.360107421875 L 292.0732727050781 404.27362060546875 L 301.37628173828125 400.2027282714844 L 310.1291809082031 395.1982421875 L 318.2225646972656 389.3227233886719 L 325.5553283691406 382.6496276855469 L 332.03582763671875 375.2623596191406 L 337.5830383300781 367.253173828125 L 342.127685546875 358.72222900390625" stroke-opacity="1" stroke-linejoin="bevel" stroke-miterlimit="10" stroke-dasharray="" clip-path="url(#EvlNiCVyEgzv)"/><path fill="none" stroke="rgb(0,0,0)" paint-order="fill" d="M 1300.5517578125 225.8333282470703 L 1300.5517578125 425.1666564941406" stroke-opacity="1" stroke-linejoin="bevel" stroke-miterlimit="10" stroke-dasharray="" clip-path="url(#qoLmLcwbnyAP)"/><path fill="none" stroke="rgb(0,0,0)" paint-order="fill" d="M 813.2587890625 241.1155548095703 L 813.2587890625 207.89332580566406" stroke-opacity="1" stroke-linejoin="bevel" stroke-miterlimit="10" stroke-dasharray="" clip-path="url(#qoLmLcwbnyAP)"/><path fill="none" stroke="rgb(0,0,0)" paint-order="fill" d="M 813.2587890625 409.8844299316406 L 813.2587890625 443.1066589355469" stroke-opacity="1" stroke-linejoin="bevel" stroke-miterlimit="10" stroke-dasharray="" clip-path="url(#qoLmLcwbnyAP)"/><path fill="none" stroke="rgb(0,0,0)" paint-order="fill" d="M 569.6123657226562 207.89332580566406 L 569.6123657226562 443.1066589355469" stroke-opacity="1" stroke-linejoin="bevel" stroke-miterlimit="10" stroke-dasharray="" clip-path="url(#qoLmLcwbnyAP)"/><path fill="none" stroke="rgb(0,0,0)" paint-order="fill" d="M 1056.9052734375 207.89332580566406 L 1056.9052734375 443.1066589355469" stroke-opacity="1" stroke-linejoin="bevel" stroke-miterlimit="10" stroke-dasharray="" clip-path="url(#qoLmLcwbnyAP)"/><path fill="none" stroke="rgb(0,0,0)" paint-order="fill" d="M 77.5 624.5 L 1336.5 624.5" stroke-opacity="1" stroke-linejoin="bevel" stroke-miterlimit="10" stroke-dasharray=""/><path fill="none" stroke="rgb(0,0,0)" paint-order="fill" d="M 257.5 630.5 L 257.5 622.5 M 617.5 630.5 L 617.5 622.5 M 976.5 630.5 L 976.5 622.5 M 1336.5 630.5 L 1336.5 622.5" stroke-opacity="1" stroke-linejoin="bevel" stroke-miterlimit="10" stroke-dasharray=""/><path fill="none" stroke="rgb(0,0,0)" paint-order="fill" d="M 185.5 628.5 L 185.5 624.5 M 113.5 628.5 L 113.5 624.5 M 257.5 628.5 L 257.5 624.5 M 329.5 628.5 L 329.5 624.5 M 401.5 628.5 L 401.5 624.5 M 473.5 628.5 L 473.5 624.5 M 545.5 628.5 L 545.5 624.5 M 617.5 628.5 L 617.5 624.5 M 689.5 628.5 L 689.5 624.5 M 760.5 628.5 L 760.5 624.5 M 832.5 628.5 L 832.5 624.5 M 904.5 628.5 L 904.5 624.5 M 976.5 628.5 L 976.5 624.5 M 1048.5 628.5 L 1048.5 624.5 M 1120.5 628.5 L 1120.5 624.5 M 1192.5 628.5 L 1192.5 624.5 M 1264.5 628.5 L 1264.5 624.5 M 1336.5 628.5 L 1336.5 624.5" stroke-opacity="1" stroke-linejoin="bevel" stroke-miterlimit="10" stroke-dasharray=""/><text fill="rgb(68,68,68)" stroke="none" font-family="helvetica" font-size="14pt" font-style="normal" font-weight="normal" text-decoration="normal" x="251.6654806137085" y="648.3619801839193" text-anchor="start" dominant-baseline="alphabetic" transform="matrix(1, 0, 0, 1, 0.5, 0.5)" fill-opacity="1">0</text><text fill="rgb(68,68,68)" stroke="none" font-family="helvetica" font-size="14pt" font-style="normal" font-weight="normal" text-decoration="normal" x="606.1880779266357" y="648.3619801839193" text-anchor="start" dominant-baseline="alphabetic" transform="matrix(1, 0, 0, 1, 0.5, 0.5)" fill-opacity="1">50</text><text fill="rgb(68,68,68)" stroke="none" font-family="helvetica" font-size="14pt" font-style="normal" font-weight="normal" text-decoration="normal" x="960.7107057571411" y="648.3619801839193" text-anchor="start" dominant-baseline="alphabetic" transform="matrix(1, 0, 0, 1, 0.5, 0.5)" fill-opacity="1">100</text><text fill="rgb(68,68,68)" stroke="none" font-family="helvetica" font-size="14pt" font-style="normal" font-weight="normal" text-decoration="normal" x="1320.4250001907349" y="648.3619801839193" text-anchor="start" dominant-baseline="alphabetic" transform="matrix(1, 0, 0, 1, 0.5, 0.5)" fill-opacity="1">150</text><text fill="rgb(68,68,68)" stroke="none" font-family="helvetica" font-size="16pt" font-style="italic" font-weight="normal" text-decoration="normal" x="674.5" y="675.4348968505859" text-anchor="start" dominant-baseline="alphabetic" transform="matrix(1, 0, 0, 1, 0.5, 0.5)" fill-opacity="1">x [mm]</text><path fill="none" stroke="rgb(0,0,0)" paint-order="fill" d="M 77.5 624.5 L 77.5 26.5" stroke-opacity="1" stroke-linejoin="bevel" stroke-miterlimit="10" stroke-dasharray=""/><path fill="none" stroke="rgb(0,0,0)" paint-order="fill" d="M 71.5 591.5 L 79.5 591.5 M 71.5 458.5 L 79.5 458.5 M 71.5 325.5 L 79.5 325.5 M 71.5 192.5 L 79.5 192.5 M 71.5 59.5 L 79.5 59.5" stroke-opacity="1" stroke-linejoin="bevel" stroke-miterlimit="10" stroke-dasharray=""/><path fill="none" stroke="rgb(0,0,0)" paint-order="fill" d="M 73.5 617.5 L 77.5 617.5 M 73.5 591.5 L 77.5 591.5 M 73.5 564.5 L 77.5 564.5 M 73.5 538.5 L 77.5 538.5 M 73.5 511.5 L 77.5 511.5 M 73.5 484.5 L 77.5 484.5 M 73.5 458.5 L 77.5 458.5 M 73.5 431.5 L 77.5 431.5 M 73.5 405.5 L 77.5 405.5 M 73.5 378.5 L 77.5 378.5 M 73.5 352.5 L 77.5 352.5 M 73.5 325.5 L 77.5 325.5 M 73.5 298.5 L 77.5 298.5 M 73.5 272.5 L 77.5 272.5 M 73.5 245.5 L 77.5 245.5 M 73.5 219.5 L 77.5 219.5 M 73.5 192.5 L 77.5 192.5 M 73.5 166.5 L 77.5 166.5 M 73.5 139.5 L 77.5 139.5 M 73.5 112.5 L 77.5 112.5 M 73.5 86.5 L 77.5 86.5 M 73.5 59.5 L 77.5 59.5 M 73.5 33.5 L 77.5 33.5" stroke-opacity="1" stroke-linejoin="bevel" stroke-miterlimit="10" stroke-dasharray=""/><text fill="rgb(68,68,68)" stroke="none" font-family="helvetica" font-size="14pt" font-style="normal" font-weight="normal" text-decoration="normal" x="34.33333396911621" y="597.4587610880534" text-anchor="start" dominant-baseline="alphabetic" transform="matrix(1, 0, 0, 1, 0.5, 0.5)" fill-opacity="1">−40</text><text fill="rgb(68,68,68)" stroke="none" font-family="helvetica" font-size="14pt" font-style="normal" font-weight="normal" text-decoration="normal" x="34.33333396911621" y="464.5698755900065" text-anchor="start" dominant-baseline="alphabetic" transform="matrix(1, 0, 0, 1, 0.5, 0.5)" fill-opacity="1">−20</text><text fill="rgb(68,68,68)" stroke="none" font-family="helvetica" font-size="14pt" font-style="normal" font-weight="normal" text-decoration="normal" x="55.61666679382324" y="331.68099009195964" text-anchor="start" dominant-baseline="alphabetic" transform="matrix(1, 0, 0, 1, 0.5, 0.5)" fill-opacity="1">0</text><text fill="rgb(68,68,68)" stroke="none" font-family="helvetica" font-size="14pt" font-style="normal" font-weight="normal" text-decoration="normal" x="45.233333587646484" y="198.79210459391274" text-anchor="start" dominant-baseline="alphabetic" transform="matrix(1, 0, 0, 1, 0.5, 0.5)" fill-opacity="1">20</text><text fill="rgb(68,68,68)" stroke="none" font-family="helvetica" font-size="14pt" font-style="normal" font-weight="normal" text-decoration="normal" x="45.233333587646484" y="65.90321146647135" text-anchor="start" dominant-baseline="alphabetic" transform="matrix(1, 0, 0, 1, 0.5, 0.5)" fill-opacity="1">40</text><text fill="rgb(68,68,68)" stroke="none" font-family="helvetica" font-size="16pt" font-style="italic" font-weight="normal" text-decoration="normal" x="-5.666666030883789" y="320.5104166666667" text-anchor="start" dominant-baseline="alphabetic" transform="matrix(6.123233995736766e-17, -1, 1, 6.123233995736766e-17, -298.1666660308838, 351.8333339691162)" fill-opacity="1">y [mm]</text><path fill="rgb(255,255,255)" stroke="rgb(229,229,229)" paint-order="fill" d="M 87.5 36.5 L 203.5 36.5 L 203.5 99.5 L 87.5 99.5 L 87.5 36.5" fill-opacity="0.9490196078431372" clip-path="url(#TdWITZAcxgUu)" stroke-opacity="0.5019607843137255" stroke-linejoin="bevel" stroke-miterlimit="10" stroke-dasharray=""/><g clip-path="url(#TdWITZAcxgUu)"><text fill="rgb(68,68,68)" stroke="none" font-family="helvetica" font-size="13px" font-style="normal" font-weight="normal" text-decoration="normal" x="122" y="56" text-anchor="start" dominant-baseline="central" transform="matrix(1, 0, 0, 1, 0.5, 0.5)" fill-opacity="1">Chief ray</text></g><path fill="none" stroke="rgb(0,0,255)" paint-order="fill" d="M 97.5 56.5 L 117.5 56.5" stroke-opacity="1" stroke-linejoin="bevel" stroke-miterlimit="10" stroke-dasharray="" clip-path="url(#TdWITZAcxgUu)"/><g clip-path="url(#TdWITZAcxgUu)"><text fill="rgb(68,68,68)" stroke="none" font-family="helvetica" font-size="13px" font-style="normal" font-weight="normal" text-decoration="normal" x="122" y="79" text-anchor="start" dominant-baseline="central" transform="matrix(1, 0, 0, 1, 0.5, 0.5)" fill-opacity="1">Marginal ray</text></g><path fill="none" stroke="rgb(255,0,0)" paint-order="fill" d="M 97.5 79.5 L 117.5 79.5" stroke-opacity="1" stroke-linejoin="bevel" stroke-miterlimit="10" stroke-dasharray="" clip-path="url(#TdWITZAcxgUu)"/><path fill="none" stroke="rgb(0,0,0)" paint-order="fill" d="M 565.6123664220385 435.10665858585577 L 569.6123657226562 443.1066589355469 L 573.6123664220385 435.10665928523804" stroke-opacity="1" stroke-linejoin="bevel" stroke-miterlimit="10" stroke-dasharray="" clip-path="url(#sXpwkhxdkDZv)"/><path fill="none" stroke="rgb(0,0,0)" paint-order="fill" d="M 573.612365023274 215.89332615535514 L 569.6123657226562 207.89332580566406 L 565.612365023274 215.8933254559729" stroke-opacity="1" stroke-linejoin="bevel" stroke-miterlimit="10" stroke-dasharray="" clip-path="url(#sXpwkhxdkDZv)"/><path fill="none" stroke="rgb(0,0,0)" paint-order="fill" d="M 569.6123657226562 207.89332580566406 L 569.6123657226562 443.1066589355469" stroke-opacity="1" stroke-linejoin="bevel" stroke-miterlimit="10" stroke-dasharray="" clip-path="url(#QwfBoFzWsaUz)"/><path fill="none" stroke="rgb(0,0,0)" paint-order="fill" d="M 1052.9052741368823 435.10665858585577 L 1056.9052734375 443.1066589355469 L 1060.9052741368823 435.10665928523804" stroke-opacity="1" stroke-linejoin="bevel" stroke-miterlimit="10" stroke-dasharray="" clip-path="url(#TvosfXcXqNxw)"/><path fill="none" stroke="rgb(0,0,0)" paint-order="fill" d="M 1060.9052727381177 215.89332615535514 L 1056.9052734375 207.89332580566406 L 1052.9052727381177 215.8933254559729" stroke-opacity="1" stroke-linejoin="bevel" stroke-miterlimit="10" stroke-dasharray="" clip-path="url(#TvosfXcXqNxw)"/><path fill="none" stroke="rgb(0,0,0)" paint-order="fill" d="M 1056.9052734375 207.89332580566406 L 1056.9052734375 443.1066589355469" stroke-opacity="1" stroke-linejoin="bevel" stroke-miterlimit="10" stroke-dasharray="" clip-path="url(#yuTpaKVToZNU)"/><path fill="none" stroke="rgb(0,0,0)" paint-order="fill" d="M 809.2587890625 241.1155548095703 L 817.2587890625 241.1155548095703" stroke-opacity="1" stroke-linejoin="bevel" stroke-miterlimit="10" stroke-dasharray="" clip-path="url(#BmFTEdxzWlIX)"/><path fill="none" stroke="rgb(0,0,0)" paint-order="fill" d="M 813.2587890625 241.1155548095703 L 813.2587890625 207.89332580566406" stroke-opacity="1" stroke-linejoin="bevel" stroke-miterlimit="10" stroke-dasharray="" clip-path="url(#caekVJooWMiE)"/><path fill="none" stroke="rgb(0,0,0)" paint-order="fill" d="M 817.2587890625 409.88443028133173 L 809.2587890625 409.8844295819495" stroke-opacity="1" stroke-linejoin="bevel" stroke-miterlimit="10" stroke-dasharray="" clip-path="url(#WLBSxowOBLtf)"/><path fill="none" stroke="rgb(0,0,0)" paint-order="fill" d="M 813.2587890625 409.8844299316406 L 813.2587890625 443.1066589355469" stroke-opacity="1" stroke-linejoin="bevel" stroke-miterlimit="10" stroke-dasharray="" clip-path="url(#FoxBEylqJbov)"/><text fill="rgb(68,68,68)" stroke="none" font-family="helvetica" font-size="13px" font-style="normal" font-weight="bold" text-decoration="normal" x="77" y="18.26416015625" text-anchor="start" dominant-baseline="alphabetic" transform="matrix(1, 0, 0, 1, 0.5, 0.5)" fill-opacity="1">P1</text></svg>