<svg version="1.1" xmlns="http://www.w3.org/2000/svg" width="1366" height="683"><defs><clipPath id="dvRxLkhcCkCl"><path fill="none" stroke="none" d="M 77.5 26.5 L 1361.5 26.5 L 1361.5 624.5 L 77.5 624.5 L 77.5 26.5"/></clipPath><clipPath id="TteyxcEQZqHx"><path fill="none" stroke="none" d="M 77.5 26.5 L 1361.5 26.5 L 1361.5 624.5 L 77.5 624.5 L 77.5 26.5"/></clipPath><clipPath id="oFexDTykrEEF"><path fill="none" stroke="none" d="M 77.5 26.5 L 1361.5 26.5 L 1361.5 624.5 L 77.5 624.5 L 77.5 26.5"/></clipPath><clipPath id="RzWnQhstlgDE"><path fill="none" stroke="none" d="M 77.5 26.5 L 1361.5 26.5 L 1361.5 624.5 L 77.5 624.5 L 77.5 26.5"/></clipPath><clipPath id="xhsTloWGEMGu"><path fill="none" stroke="none" d="M 77.5 26.5 L 1361.5 26.5 L 1361.5 624.5 L 77.5 624.5 L 77.5 26.5"/></clipPath><clipPath id="txcQxkcLHybT"><path fill="none" stroke="none" d="M 77.5 26.5 L 1361.5 26.5 L 1361.5 624.5 L 77.5 624.5 L 77.5 26.5"/></clipPath><clipPath id="lWknKVDckufe"><path fill="none" stroke="none" d="M 77.5 26.5 L 1361.5 26.5 L 1361.5 624.5 L 77.5 624.5 L 77.5 26.5"/></clipPath><clipPath id="CAnafIVSKlPs"><path fill="none" stroke="none" d="M 77.5 26.5 L 1361.5 26.5 L 1361.5 624.5 L 77.5 624.5 L 77.5 26.5"/></clipPath><clipPath id="BqzmGicvGyQa"><path fill="none" stroke="none" d="M 77.5 26.5 L 1361.5 26.5 L 1361.5 624.5 L 77.5 624.5 L 77.5 26.5"/></clipPath><clipPath id="SdxbvqGNxHfG"><path fill="none" stroke="none" d="M 77.5 26.5 L 1361.5 26.5 L 1361.5 624.5 L 77.5 624.5 L 77.5 26.5"/></clipPath><clipPath id="ruxpdauWiDnk"><path fill="none" stroke="none" d="M 77.5 26.5 L 1361.5 26.5 L 1361.5 624.5 L 77.5 624.5 L 77.5 26.5 M 575.384217007976 435.10665858585577 L 575.3842161337482 445.10665858585577 L 583.3842161337482 445.106659285238 L 583.384217007976 435.10665928523804 L 579.3842163085938 443.1066589355469 L 575.384217007976 435.10665858585577 M 583.3842156092115 215.89332615535514 L 583.3842164834393 205.8933261553552 L 575.3842164834393 205.89332545597296 L 575.3842156092115 215.8933254559729 L 579.3842163085938 207.89332580566406 L 583.3842156092115 215.89332615535514 Z"/></clipPath><clipPath id="EizTvhfBNvQo"><path fill="none" stroke="none" d="M 77.5 26.5 L 1361.5 26.5 L 1361.5 624.5 L 77.5 624.5 L 77.5 26.5"/></clipPath><clipPath id="dUkrFZHQePWU"><path fill="none" stroke="none" d="M 77.5 26.5 L 1361.5 26.5 L 1361.5 624.5 L 77.5 624.5 L 77.5 26.5 M 1072.3533942540698 435.10665858585577 L 1072.353393379842 445.10665858585577 L 1080.353393379842 445.106659285238 L 1080.3533942540698 435.10665928523804 L 1076.3533935546875 443.1066589355469 L 1072.3533942540698 435.10665858585577 M 1080.3533928553052 215.89332615535514 L 1080.353393729533 205.8933261553552 L 1072.353393729533 205.89332545597296 L 1072.3533928553052 215.8933254559729 L 1076.3533935546875 207.89332580566406 L 1080.3533928553052 215.89332615535514 Z"/></clipPath><clipPath id="MRQXTUKQCaOw"><path fill="none" stroke="none" d="M 77.5 26.5 L 1361.5 26.5 L 1361.5 624.5 L 77.5 624.5 L 77.5 26.5"/></clipPath><clipPath id="aWXhUTNEbOeM"><path fill="none" stroke="none" d="M 77.5 26.5 L 1361.5 26.5 L 1361.5 624.5 L 77.5 624.5 L 77.5 26.5 Z"/></clipPath><clipPath id="ggQSLTuPeadV"><path fill="none" stroke="none" d="M 77.5 26.5 L 1361.5 26.5 L 1361.5 624.5 L 77.5 624.5 L 77.5 26.5"/></clipPath><clipPath id="kGiWsuusOdSs"><path fill="none" stroke="none" d="M 77.5 26.5 L 1361.5 26.5 L 1361.5 624.5 L 77.5 624.5 L 77.5 26.5 Z"/></clipPath></defs><path fill="rgb(255,255,255)" stroke="none" paint-order="stroke" d="M 0.5 0.5 L 1366.5 0.5 L 1366.5 683.5 L 0.5 683.5 L 0.5 0.5" fill-opacity="1"/><rect fill="#FFFFFF" stroke="none" x="77" y="26" width="1284" height="598" transform="matrix(1, 0, 0, 1, 0.5, 0.5)"/><path fill="rgb(255,255,255)" stroke="none" paint-order="stroke" d="M 77.5 26.5 L 1361.5 26.5 L 1361.5 624.5 L 77.5 624.5 L 77.5 26.5" fill-opacity="1"/><path fill="none" stroke="rgb(229,229,229)" paint-order="fill" d="M 77.5 26.5 L 1361.5 26.5 L 1361.5 624.5 L 77.5 624.5 L 77.5 26.5" stroke-opacity="1" stroke-linejoin="bevel" stroke-miterlimit="10" stroke-dasharray=""/><path fill="none" stroke="rgb(229,229,229)" paint-order="fill" d="M 260.5 624.5 L 260.5 26.5 M 627.5 624.5 L 627.5 26.5 M 994.5 624.5 L 994.5 26.5" stroke-opacity="1" stroke-linejoin="bevel" stroke-miterlimit="10" stroke-dasharray="" clip-path="url(#dvRxLkhcCkCl)"/><path fill="none" stroke="rgb(229,229,229)" paint-order="fill" d="M 77.5 591.5 L 1361.5 591.5 M 77.5 458.5 L 1361.5 458.5 M 77.5 325.5 L 1361.5 325.5 M 77.5 192.5 L 1361.5 192.5 M 77.5 59.5 L 1361.5 59.5" stroke-opacity="1" stroke-linejoin="bevel" stroke-miterlimit="10" stroke-dasharray="" clip-path="url(#TteyxcEQZqHx)"/><path fill="none" stroke="rgb(0,0,0)" paint-order="fill" d="M 114.18571472167969 325.5 L 3415.89990234375 325.5" stroke-opacity="1" stroke-linejoin="bevel" stroke-miterlimit="10" stroke-dasharray="" clip-path="url(#oFexDTykrEEF)"/><path fill="rgb(0,0,0)" stroke="none" paint-order="stroke" d="M 262.4285583496094 325.5 A 1.5 1.5 0 0 1 259.4285583496094 325.5 A 1.5 1.5 0 0 1 262.4285583496094 325.5" fill-opacity="1" clip-path="url(#RzWnQhstlgDE)"/><path fill="none" stroke="rgb(0,0,255)" paint-order="fill" d="M 444.3571472167969 325.5 L 362.18115234375 325.5 L 358.1457214355469 325.5 L 335.0337219238281 325.5 L 358.1457214355469 325.5 L 362.18115234375 325.5 L 579.3842163085938 325.5 L 827.8687744140625 325.5 L 1076.3533935546875 325.5 L 1324.837890625 325.5" stroke-opacity="1" stroke-linejoin="bevel" stroke-miterlimit="10" stroke-dasharray="" clip-path="url(#xhsTloWGEMGu)"/><path fill="none" stroke="rgb(255,0,0)" paint-order="fill" d="M 444.3571472167969 353.79815673828125 L 362.0103454589844 329.493896484375 L 358.0231628417969 328.5709228515625 L 334.9928894042969 323.12371826171875 L 357.0955505371094 316.5429992675781 L 361.07464599609375 315.3703308105469 L 579.3842163085938 241.32533264160156 L 827.8687744140625 241.22042846679688 L 1076.3533935546875 241.1155242919922 L 1324.837890625 325.3951110839844" stroke-opacity="1" stroke-linejoin="bevel" stroke-miterlimit="10" stroke-dasharray="" clip-path="url(#txcQxkcLHybT)"/><path fill="none" stroke="rgb(255,0,0)" paint-order="fill" d="M 444.3571472167969 297.20184326171875 L 362.0103454589844 321.506103515625 L 358.0231628417969 322.4290771484375 L 334.9928894042969 327.87628173828125 L 357.0955505371094 334.4570007324219 L 361.07464599609375 335.6296691894531 L 579.3842163085938 409.6746826171875 L 827.8687744140625 409.7795715332031 L 1076.3533935546875 409.8844909667969 L 1324.837890625 325.6048889160156" stroke-opacity="1" stroke-linejoin="bevel" stroke-miterlimit="10" stroke-dasharray="" clip-path="url(#txcQxkcLHybT)"/><path fill="none" stroke="rgb(0,0,0)" paint-order="fill" d="M 349.102294921875 358.72222900390625 L 350.26239013671875 357.3662109375 L 351.3516845703125 356.01019287109375 L 352.3742370605469 354.6542053222656 L 353.33355712890625 353.2981872558594 L 354.23272705078125 351.9421691894531 L 355.0744323730469 350.586181640625 L 355.8611145019531 349.23016357421875 L 356.5948181152344 347.8741455078125 L 357.2774658203125 346.51812744140625 L 357.9107360839844 345.1621398925781 L 358.49603271484375 343.8061218261719 L 359.0347595214844 342.4501037597656 L 359.5280456542969 341.0941162109375 L 359.9768981933594 339.73809814453125 L 360.3822937011719 338.382080078125 L 360.7449951171875 337.02606201171875 L 361.06573486328125 335.6700744628906 L 361.3450927734375 334.3140563964844 L 361.5836181640625 332.9580383300781 L 361.78173828125 331.60205078125 L 361.9398193359375 330.24603271484375 L 362.0581359863281 328.8900146484375 L 362.1368713378906 327.5340270996094 L 362.1762390136719 326.1780090332031 L 362.1762390136719 324.8219909667969 L 362.1368713378906 323.4659729003906 L 362.0581359863281 322.1099853515625 L 361.9398193359375 320.75396728515625 L 361.78173828125 319.39794921875 L 361.5836181640625 318.0419616699219 L 361.3450927734375 316.6859436035156 L 361.06573486328125 315.3299255371094 L 360.7449951171875 313.97393798828125 L 360.3822937011719 312.617919921875 L 359.9768981933594 311.26190185546875 L 359.5280456542969 309.9058837890625 L 359.0347595214844 308.5498962402344 L 358.49603271484375 307.1938781738281 L 357.9107360839844 305.8378601074219 L 357.2774658203125 304.48187255859375 L 356.5948181152344 303.1258544921875 L 355.8611145019531 301.76983642578125 L 355.0744323730469 300.413818359375 L 354.23272705078125 299.0578308105469 L 353.33355712890625 297.7018127441406 L 352.3742370605469 296.3457946777344 L 351.3516845703125 294.98980712890625 L 350.26239013671875 293.6337890625 L 349.102294921875 292.27777099609375" stroke-opacity="1" stroke-linejoin="bevel" stroke-miterlimit="10" stroke-dasharray="" clip-path="url(#lWknKVDckufe)"/><path fill="none" stroke="rgb(0,0,0)" paint-order="fill" d="M 341.73681640625 358.72222900390625 L 343.24798583984375 357.3662109375 L 344.6544189453125 356.01019287109375 L 345.9645080566406 354.6542053222656 L 347.185302734375 353.2981872558594 L 348.32275390625 351.9421691894531 L 349.3819274902344 350.586181640625 L 350.3672180175781 349.23016357421875 L 351.2823791503906 347.8741455078125 L 352.13067626953125 346.51812744140625 L 352.9150085449219 345.1621398925781 L 353.6378173828125 343.8061218261719 L 354.3013000488281 342.4501037597656 L 354.9074401855469 341.0941162109375 L 355.45782470703125 339.73809814453125 L 355.9540100097656 338.382080078125 L 356.397216796875 337.02606201171875 L 356.78857421875 335.6700744628906 L 357.1290588378906 334.3140563964844 L 357.4194641113281 332.9580383300781 L 357.66046142578125 331.60205078125 L 357.85260009765625 330.24603271484375 L 357.996337890625 328.8900146484375 L 358.09197998046875 327.5340270996094 L 358.1397399902344 326.1780090332031 L 358.1397399902344 324.8219909667969 L 358.09197998046875 323.4659729003906 L 357.996337890625 322.1099853515625 L 357.85260009765625 320.75396728515625 L 357.66046142578125 319.39794921875 L 357.4194641113281 318.0419616699219 L 357.1290588378906 316.6859436035156 L 356.78857421875 315.3299255371094 L 356.397216796875 313.97393798828125 L 355.9540100097656 312.617919921875 L 355.45782470703125 311.26190185546875 L 354.9074401855469 309.9058837890625 L 354.3013000488281 308.5498962402344 L 353.6378173828125 307.1938781738281 L 352.9150085449219 305.8378601074219 L 352.13067626953125 304.48187255859375 L 351.2823791503906 303.1258544921875 L 350.3672180175781 301.76983642578125 L 349.3819274902344 300.413818359375 L 348.32275390625 299.0578308105469 L 347.185302734375 297.7018127441406 L 345.9645080566406 296.3457946777344 L 344.6544189453125 294.98980712890625 L 343.24798583984375 293.6337890625 L 341.73681640625 292.27777099609375" stroke-opacity="1" stroke-linejoin="bevel" stroke-miterlimit="10" stroke-dasharray="" clip-path="url(#lWknKVDckufe)"/><path fill="none" stroke="rgb(0,0,0)" paint-order="fill" d="M 328.1649169921875 358.72222900390625 L 328.65087890625 357.3662109375 L 329.12481689453125 356.01019287109375 L 329.5860595703125 354.6542053222656 L 330.033935546875 353.2981872558594 L 330.4677734375 351.9421691894531 L 330.8868408203125 350.586181640625 L 331.2903747558594 349.23016357421875 L 331.6776428222656 347.8741455078125 L 332.04779052734375 346.51812744140625 L 332.40008544921875 345.1621398925781 L 332.7336730957031 343.8061218261719 L 333.0477600097656 342.4501037597656 L 333.3415222167969 341.0941162109375 L 333.61419677734375 339.73809814453125 L 333.8649597167969 338.382080078125 L 334.0931091308594 337.02606201171875 L 334.29791259765625 335.6700744628906 L 334.47869873046875 334.3140563964844 L 334.6348876953125 332.9580383300781 L 334.7658996582031 331.60205078125 L 334.8713073730469 330.24603271484375 L 334.95068359375 328.8900146484375 L 335.0037841796875 327.5340270996094 L 335.0303955078125 326.1780090332031 L 335.0303955078125 324.8219909667969 L 335.0037841796875 323.4659729003906 L 334.95068359375 322.1099853515625 L 334.8713073730469 320.75396728515625 L 334.7658996582031 319.39794921875 L 334.6348876953125 318.0419616699219 L 334.47869873046875 316.6859436035156 L 334.29791259765625 315.3299255371094 L 334.0931091308594 313.97393798828125 L 333.8649597167969 312.617919921875 L 333.61419677734375 311.26190185546875 L 333.3415222167969 309.9058837890625 L 333.0477600097656 308.5498962402344 L 332.7336730957031 307.1938781738281 L 332.40008544921875 305.8378601074219 L 332.04779052734375 304.48187255859375 L 331.6776428222656 303.1258544921875 L 331.2903747558594 301.76983642578125 L 330.8868408203125 300.413818359375 L 330.4677734375 299.0578308105469 L 330.033935546875 297.7018127441406 L 329.5860595703125 296.3457946777344 L 329.12481689453125 294.98980712890625 L 328.65087890625 293.6337890625 L 328.1649169921875 292.27777099609375" stroke-opacity="1" stroke-linejoin="bevel" stroke-miterlimit="10" stroke-dasharray="" clip-path="url(#lWknKVDckufe)"/><path fill="none" stroke="rgb(0,0,0)" paint-order="fill" d="M 322.0740661621094 358.72222900390625 L 321.11767578125 357.3662109375 L 320.18548583984375 356.01019287109375 L 319.2787780761719 354.6542053222656 L 318.3988037109375 353.2981872558594 L 317.5469665527344 351.9421691894531 L 316.7246398925781 350.586181640625 L 315.9332580566406 349.23016357421875 L 315.17431640625 347.8741455078125 L 314.4493103027344 346.51812744140625 L 313.759765625 345.1621398925781 L 313.1072082519531 343.8061218261719 L 312.4931640625 342.4501037597656 L 311.919189453125 341.0941162109375 L 311.3867492675781 339.73809814453125 L 310.8973083496094 338.382080078125 L 310.4523010253906 337.02606201171875 L 310.0530090332031 335.6700744628906 L 309.7006530761719 334.3140563964844 L 309.39642333984375 332.9580383300781 L 309.1412658691406 331.60205078125 L 308.93609619140625 330.24603271484375 L 308.78155517578125 328.8900146484375 L 308.67822265625 327.5340270996094 L 308.62646484375 326.1780090332031 L 308.62646484375 324.8219909667969 L 308.67822265625 323.4659729003906 L 308.78155517578125 322.1099853515625 L 308.93609619140625 320.75396728515625 L 309.1412658691406 319.39794921875 L 309.39642333984375 318.0419616699219 L 309.7006530761719 316.6859436035156 L 310.0530090332031 315.3299255371094 L 310.4523010253906 313.97393798828125 L 310.8973083496094 312.617919921875 L 311.3867492675781 311.26190185546875 L 311.919189453125 309.9058837890625 L 312.4931640625 308.5498962402344 L 313.1072082519531 307.1938781738281 L 313.759765625 305.8378601074219 L 314.4493103027344 304.48187255859375 L 315.17431640625 303.1258544921875 L 315.9332580566406 301.76983642578125 L 316.7246398925781 300.413818359375 L 317.5469665527344 299.0578308105469 L 318.3988037109375 297.7018127441406 L 319.2787780761719 296.3457946777344 L 320.18548583984375 294.98980712890625 L 321.11767578125 293.6337890625 L 322.0740661621094 292.27777099609375" stroke-opacity="1" stroke-linejoin="bevel" stroke-miterlimit="10" stroke-dasharray="" clip-path="url(#lWknKVDckufe)"/><path fill="none" stroke="rgb(0,0,0)" paint-order="fill" d="M 347.3824157714844 292.27777099609375 L 342.7475280761719 283.746826171875 L 337.09014892578125 275.7376403808594 L 330.48095703125 268.3503723144531 L 323.0025939941406 261.6772766113281 L 314.7485046386719 255.80177307128906 L 305.8218078613281 250.7972869873047 L 296.3340759277344 246.7263641357422 L 286.4039001464844 243.63987731933594 L 276.15533447265625 241.57640075683594 L 265.71649169921875 240.56170654296875 L 255.2178192138672 240.60848999023438 L 244.79051208496094 241.71617126464844 L 234.56488037109375 243.87088012695312 L 224.66871643066406 247.0457305908203 L 215.22569274902344 251.2010040283203 L 206.35382080078125 256.28480529785156 L 198.16397094726562 262.23358154296875 L 190.75848388671875 268.9729919433594 L 184.2299041748047 276.4188232421875 L 178.6598358154297 284.47802734375 L 174.11788940429688 293.0498962402344 L 170.66079711914062 302.02728271484375 L 168.331787109375 311.2980041503906 L 167.1599578857422 320.7461853027344 L 167.1599578857422 330.2538146972656 L 168.331787109375 339.7019958496094 L 170.66079711914062 348.97271728515625 L 174.11788940429688 357.9501037597656 L 178.6598358154297 366.52197265625 L 184.2299041748047 374.5811767578125 L 190.75848388671875 382.0270080566406 L 198.16397094726562 388.76641845703125 L 206.35382080078125 394.7152099609375 L 215.22569274902344 399.7989807128906 L 224.66871643066406 403.95428466796875 L 234.56488037109375 407.1291198730469 L 244.79051208496094 409.2838439941406 L 255.2178192138672 410.3915100097656 L 265.71649169921875 410.43829345703125 L 276.15533447265625 409.4236145019531 L 286.4039001464844 407.360107421875 L 296.3340759277344 404.27362060546875 L 305.8218078613281 400.2027282714844 L 314.7485046386719 395.1982421875 L 323.0025939941406 389.3227233886719 L 330.48095703125 382.6496276855469 L 337.09014892578125 375.2623596191406 L 342.7475280761719 367.253173828125 L 347.3824157714844 358.72222900390625" stroke-opacity="1" stroke-linejoin="bevel" stroke-miterlimit="10" stroke-dasharray="" clip-path="url(#lWknKVDckufe)"/><path fill="none" stroke="rgb(0,0,0)" paint-order="fill" d="M 1324.837890625 225.8333282470703 L 1324.837890625 425.1666564941406" stroke-opacity="1" stroke-linejoin="bevel" stroke-miterlimit="10" stroke-dasharray="" clip-path="url(#CAnafIVSKlPs)"/><path fill="none" stroke="rgb(0,0,0)" paint-order="fill" d="M 827.8687744140625 241.1155548095703 L 827.8687744140625 207.89332580566406" stroke-opacity="1" stroke-linejoin="bevel" stroke-miterlimit="10" stroke-dasharray="" clip-path="url(#CAnafIVSKlPs)"/><path fill="none" stroke="rgb(0,0,0)" paint-order="fill" d="M 827.8687744140625 409.8844299316406 L 827.8687744140625 443.1066589355469" stroke-opacity="1" stroke-linejoin="bevel" stroke-miterlimit="10" stroke-dasharray="" clip-path="url(#CAnafIVSKlPs)"/><path fill="none" stroke="rgb(0,0,0)" paint-order="fill" d="M 579.3842163085938 207.89332580566406 L 579.3842163085938 443.1066589355469" stroke-opacity="1" stroke-linejoin="bevel" stroke-miterlimit="10" stroke-dasharray="" clip-path="url(#CAnafIVSKlPs)"/><path fill="none" stroke="rgb(0,0,0)" paint-order="fill" d="M 1076.3533935546875 207.89332580566406 L 1076.3533935546875 443.1066589355469" stroke-opacity="1" stroke-linejoin="bevel" stroke-miterlimit="10" stroke-dasharray="" clip-path="url(#CAnafIVSKlPs)"/><path fill="none" stroke="rgb(0,0,0)" paint-order="fill" d="M 77.5 624.5 L 1361.5 624.5" stroke-opacity="1" stroke-linejoin="bevel" stroke-miterlimit="10" stroke-dasharray=""/><path fill="none" stroke="rgb(0,0,0)" paint-order="fill" d="M 260.5 630.5 L 260.5 622.5 M 627.5 630.5 L 627.5 622.5 M 994.5 630.5 L 994.5 622.5 M 1361.5 630.5 L 1361.5 622.5" stroke-opacity="1" stroke-linejoin="bevel" stroke-miterlimit="10" stroke-dasharray=""/><path fill="none" stroke="rgb(0,0,0)" paint-order="fill" d="M 187.5 628.5 L 187.5 624.5 M 114.5 628.5 L 114.5 624.5 M 260.5 628.5 L 260.5 624.5 M 334.5 628.5 L 334.5 624.5 M 407.5 628.5 L 407.5 624.5 M 481.5 628.5 L 481.5 624.5 M 554.5 628.5 L 554.5 624.5 M 627.5 628.5 L 627.5 624.5 M 701.5 628.5 L 701.5 624.5 M 774.5 628.5 L 774.5 624.5 M 847.5 628.5 L 847.5 624.5 M 921.5 628.5 L 921.5 624.5 M 994.5 628.5 L 994.5 624.5 M 1068.5 628.5 L 1068.5 624.5 M 1141.5 628.5 L 1141.5 624.5 M 1214.5 628.5 L 1214.5 624.5 M 1288.5 628.5 L 1288.5 624.5 M 1361.5 628.5 L 1361.5 624.5" stroke-opacity="1" stroke-linejoin="bevel" stroke-miterlimit="10" stroke-dasharray=""/><text fill="rgb(68,68,68)" stroke="none" font-family="helvetica" font-size="14pt" font-style="normal" font-weight="normal" text-decoration="normal" x="255.236891746521" y="648.3619801839193" text-anchor="start" dominant-baseline="alphabetic" transform="matrix(1, 0, 0, 1, 0.5, 0.5)" fill-opacity="1">0</text><text fill="rgb(68,68,68)" stroke="none" font-family="helvetica" font-size="14pt" font-style="normal" font-weight="normal" text-decoration="normal" x="616.9023723602295" y="648.3619801839193" text-anchor="start" dominant-baseline="alphabetic" transform="matrix(1, 0, 0, 1, 0.5, 0.5)" fill-opacity="1">50</text><text fill="rgb(68,68,68)" stroke="none" font-family="helvetica" font-size="14pt" font-style="normal" font-weight="normal" text-decoration="normal" x="978.5678834915161" y="648.3619801839193" text-anchor="start" dominant-baseline="alphabetic" transform="matrix(1, 0, 0, 1, 0.5, 0.5)" fill-opacity="1">100</text><text fill="rgb(68,68,68)" stroke="none" font-family="helvetica" font-size="14pt" font-style="normal" font-weight="normal" text-decoration="normal" x="1334.8500003814697" y="648.3619801839193" text-anchor="start" dominant-baseline="alphabetic" transform="matrix(1, 0, 0, 1, 0.5, 0.5)" fill-opacity="1">150</text><text fill="rgb(68,68,68)" stroke="none" font-family="helvetica" font-size="16pt" font-style="italic" font-weight="normal" text-decoration="normal" x="687" y="675.4348968505859" text-anchor="start" dominant-baseline="alphabetic" transform="matrix(1, 0, 0, 1, 0.5, 0.5)" fill-opacity="1">x [mm]</text><path fill="none" stroke="rgb(0,0,0)" paint-order="fill" d="M 77.5 624.5 L 77.5 26.5" stroke-opacity="1" stroke-linejoin="bevel" stroke-miterlimit="10" stroke-dasharray=""/><path fill="none" stroke="rgb(0,0,0)" paint-order="fill" d="M 71.5 591.5 L 79.5 591.5 M 71.5 458.5 L 79.5 458.5 M 71.5 325.5 L 79.5 325.5 M 71.5 192.5 L 79.5 192.5 M 71.5 59.5 L 79.5 59.5" stroke-opacity="1" stroke-linejoin="bevel" stroke-miterlimit="10" stroke-dasharray=""/><path fill="none" stroke="rgb(0,0,0)" paint-order="fill" d="M 73.5 617.5 L 77.5 617.5 M 73.5 591.5 L 77.5 591.5 M 73.5 564.5 L 77.5 564.5 M 73.5 538.5 L 77.5 538.5 M 73.5 511.5 L 77.5 511.5 M 73.5 484.5 L 77.5 484.5 M 73.5 458.5 L 77.5 458.5 M 73.5 431.5 L 77.5 431.5 M 73.5 405.5 L 77.5 405.5 M 73.5 378.5 L 77.5 378.5 M 73.5 352.5 L 77.5 352.5 M 73.5 325.5 L 77.5 325.5 M 73.5 298.5 L 77.5 298.5 M 73.5 272.5 L 77.5 272.5 M 73.5 245.5 L 77.5 245.5 M 73.5 219.5 L 77.5 219.5 M 73.5 192.5 L 77.5 192.5 M 73.5 166.5 L 77.5 166.5 M 73.5 139.5 L 77.5 139.5 M 73.5 112.5 L 77.5 112.5 M 73.5 86.5 L 77.5 86.5 M 73.5 59.5 L 77.5 59.5 M 73.5 33.5 L 77.5 33.5" stroke-opacity="1" stroke-linejoin="bevel" stroke-miterlimit="10" stroke-dasharray=""/><text fill="rgb(68,68,68)" stroke="none" font-family="helvetica" font-size="14pt" font-style="normal" font-weight="normal" text-decoration="normal" x="34.33333396911621" y="597.4587610880534" text-anchor="start" dominant-baseline="alphabetic" transform="matrix(1, 0, 0, 1, 0.5, 0.5)" fill-opacity="1">−40</text><text fill="rgb(68,68,68)" stroke="none" font-family="helvetica" font-size="14pt" font-style="normal" font-weight="normal" text-decoration="normal" x="34.33333396911621" y="464.5698755900065" text-anchor="start" dominant-baseline="alphabetic" transform="matrix(1, 0, 0, 1, 0.5, 0.5)" fill-opacity="1">−20</text><text fill="rgb(68,68,68)" stroke="none" font-family="helvetica" font-size="14pt" font-style="normal" font-weight="normal" text-decoration="normal" x="55.61666679382324" y="331.68099009195964" text-anchor="start" dominant-baseline="alphabetic" transform="matrix(1, 0, 0, 1, 0.5, 0.5)" fill-opacity="1">0</text><text fill="rgb(68,68,68)" stroke="none" font-family="helvetica" font-size="14pt" font-style="normal" font-weight="normal" text-decoration="normal" x="45.233333587646484" y="198.79210459391274" text-anchor="start" dominant-baseline="alphabetic" transform="matrix(1, 0, 0, 1, 0.5, 0.5)" fill-opacity="1">20</text><text fill="rgb(68,68,68)" stroke="none" font-family="helvetica" font-size="14pt" font-style="normal" font-weight="normal" text-decoration="normal" x="45.233333587646484" y="65.90321146647135" text-anchor="start" dominant-baseline="alphabetic" transform="matrix(1, 0, 0, 1, 0.5, 0.5)" fill-opacity="1">40</text><text fill="rgb(68,68,68)" stroke="none" font-family="helvetica" font-size="16pt" font-style="italic" font-weight="normal" text-decoration="normal" x="-5.666666030883789" y="320.5104166666667" text-anchor="start" dominant-baseline="alphabetic" transform="matrix(6.123233995736766e-17, -1, 1, 6.123233995736766e-17, -298.1666660308838, 351.8333339691162)" fill-opacity="1">y [mm]</text><path fill="rgb(255,255,255)" stroke="rgb(229,229,229)" paint-order="fill" d="M 87.5 36.5 L 203.5 36.5 L 203.5 99.5 L 87.5 99.5 L 87.5 36.5" fill-opacity="0.9490196078431372" clip-path="url(#BqzmGicvGyQa)" stroke-opacity="0.5019607843137255" stroke-linejoin="bevel" stroke-miterlimit="10" stroke-dasharray=""/><g clip-path="url(#BqzmGicvGyQa)"><text fill="rgb(68,68,68)" stroke="none" font-family="helvetica" font-size="13px" font-style="normal" font-weight="normal" text-decoration="normal" x="122" y="56" text-anchor="start" dominant-baseline="central" transform="matrix(1, 0, 0, 1, 0.5, 0.5)" fill-opacity="1">Chief ray</text></g><path fill="none" stroke="rgb(0,0,255)" paint-order="fill" d="M 97.5 56.5 L 117.5 56.5" stroke-opacity="1" stroke-linejoin="bevel" stroke-miterlimit="10" stroke-dasharray="" clip-path="url(#BqzmGicvGyQa)"/><g clip-path="url(#BqzmGicvGyQa)"><text fill="rgb(68,68,68)" stroke="none" font-family="helvetica" font-size="13px" font-style="normal" font-weight="normal" text-decoration="normal" x="122" y="79" text-anchor="start" dominant-baseline="central" transform="matrix(1, 0, 0, 1, 0.5, 0.5)" fill-opacity="1">Marginal ray</text></g><path fill="none" stroke="rgb(255,0,0)" paint-order="fill" d="M 97.5 79.5 L 117.5 79.5" stroke-opacity="1" stroke-linejoin="bevel" stroke-miterlimit="10" stroke-dasharray="" clip-path="url(#BqzmGicvGyQa)"/><path fill="none" stroke="rgb(0,0,0)" paint-order="fill" d="M 575.384217007976 435.10665858585577 L 579.3842163085938 443.1066589355469 L 583.384217007976 435.10665928523804" stroke-opacity="1" stroke-linejoin="bevel" stroke-miterlimit="10" stroke-dasharray="" clip-path="url(#SdxbvqGNxHfG)"/><path fill="none" stroke="rgb(0,0,0)" paint-order="fill" d="M 583.3842156092115 215.89332615535514 L 579.3842163085938 207.89332580566406 L 575.3842156092115 215.8933254559729" stroke-opacity="1" stroke-linejoin="bevel" stroke-miterlimit="10" stroke-dasharray="" clip-path="url(#SdxbvqGNxHfG)"/><path fill="none" stroke="rgb(0,0,0)" paint-order="fill" d="M 579.3842163085938 207.89332580566406 L 579.3842163085938 443.1066589355469" stroke-opacity="1" stroke-linejoin="bevel" stroke-miterlimit="10" stroke-dasharray="" clip-path="url(#ruxpdauWiDnk)"/><path fill="none" stroke="rgb(0,0,0)" paint-order="fill" d="M 1072.3533942540698 435.10665858585577 L 1076.3533935546875 443.1066589355469 L 1080.3533942540698 435.10665928523804" stroke-opacity="1" stroke-linejoin="bevel" stroke-miterlimit="10" stroke-dasharray="" clip-path="url(#EizTvhfBNvQo)"/><path fill="none" stroke="rgb(0,0,0)" paint-order="fill" d="M 1080.3533928553052 215.89332615535514 L 1076.3533935546875 207.89332580566406 L 1072.3533928553052 215.8933254559729" stroke-opacity="1" stroke-linejoin="bevel" stroke-miterlimit="10" stroke-dasharray="" clip-path="url(#EizTvhfBNvQo)"/><path fill="none" stroke="rgb(0,0,0)" paint-order="fill" d="M 1076.3533935546875 207.89332580566406 L 1076.3533935546875 443.1066589355469" stroke-opacity="1" stroke-linejoin="bevel" stroke-miterlimit="10" stroke-dasharray="" clip-path="url(#dUkrFZHQePWU)"/><path fill="none" stroke="rgb(0,0,0)" paint-order="fill" d="M 823.8687744140625 241.1155548095703 L 831.8687744140625 241.1155548095703" stroke-opacity="1" stroke-linejoin="bevel" stroke-miterlimit="10" stroke-dasharray="" clip-path="url(#MRQXTUKQCaOw)"/><path fill="none" stroke="rgb(0,0,0)" paint-order="fill" d="M 827.8687744140625 241.1155548095703 L 827.8687744140625 207.89332580566406" stroke-opacity="1" stroke-linejoin="bevel" stroke-miterlimit="10" stroke-dasharray="" clip-path="url(#aWXhUTNEbOeM)"/><path fill="none" stroke="rgb(0,0,0)" paint-order="fill" d="M 831.8687744140625 409.88443028133173 L 823.8687744140625 409.8844295819495" stroke-opacity="1" stroke-linejoin="bevel" stroke-miterlimit="10" stroke-dasharray="" clip-path="url(#ggQSLTuPeadV)"/><path fill="none" stroke="rgb(0,0,0)" paint-order="fill" d="M 827.8687744140625 409.8844299316406 L 827.8687744140625 443.1066589355469" stroke-opacity="1" stroke-linejoin="bevel" stroke-miterlimit="10" stroke-dasharray="" clip-path="url(#kGiWsuusOdSs)"/><text fill="rgb(68,68,68)" stroke="none" font-family="helvetica" font-size="13px" font-style="normal" font-weight="bold" text-decoration="normal" x="77" y="18.26416015625" text-anchor="start" dominant-baseline="alphabetic" transform="matrix(1, 0, 0, 1, 0.5, 0.5)" fill-opacity="1">P3</text></svg>