<svg version="1.1" xmlns="http://www.w3.org/2000/svg" width="1366" height="705"><defs><clipPath id="ZIxIeTBGbAbm"><path fill="none" stroke="none" d="M 77.5 26.5 L 1336.5 26.5 L 1336.5 646.5 L 77.5 646.5 L 77.5 26.5"/></clipPath><clipPath id="OLtQLfmGyHZh"><path fill="none" stroke="none" d="M 77.5 26.5 L 1336.5 26.5 L 1336.5 646.5 L 77.5 646.5 L 77.5 26.5"/></clipPath><clipPath id="OMGntxwtHbTZ"><path fill="none" stroke="none" d="M 77.5 26.5 L 1336.5 26.5 L 1336.5 646.5 L 77.5 646.5 L 77.5 26.5"/></clipPath><clipPath id="biMKrORkWrbm"><path fill="none" stroke="none" d="M 77.5 26.5 L 1336.5 26.5 L 1336.5 646.5 L 77.5 646.5 L 77.5 26.5"/></clipPath><clipPath id="FVTsIafFBeWS"><path fill="none" stroke="none" d="M 77.5 26.5 L 1336.5 26.5 L 1336.5 646.5 L 77.5 646.5 L 77.5 26.5"/></clipPath><clipPath id="SlmwaKEpIfGd"><path fill="none" stroke="none" d="M 77.5 26.5 L 1336.5 26.5 L 1336.5 646.5 L 77.5 646.5 L 77.5 26.5"/></clipPath><clipPath id="CHSNPppozXoZ"><path fill="none" stroke="none" d="M 77.5 26.5 L 1336.5 26.5 L 1336.5 646.5 L 77.5 646.5 L 77.5 26.5"/></clipPath><clipPath id="OQyBEVilXIUr"><path fill="none" stroke="none" d="M 77.5 26.5 L 1336.5 26.5 L 1336.5 646.5 L 77.5 646.5 L 77.5 26.5"/></clipPath><clipPath id="CxTxrtpHqneI"><path fill="none" stroke="none" d="M 77.5 26.5 L 1336.5 26.5 L 1336.5 646.5 L 77.5 646.5 L 77.5 26.5"/></clipPath><clipPath id="gwTDfHvkVThP"><path fill="none" stroke="none" d="M 77.5 26.5 L 1336.5 26.5 L 1336.5 646.5 L 77.5 646.5 L 77.5 26.5"/></clipPath><clipPath id="FDMcOuCApVbQ"><path fill="none" stroke="none" d="M 77.5 26.5 L 1336.5 26.5 L 1336.5 646.5 L 77.5 646.5 L 77.5 26.5 M 565.6123664220385 450.43331874210577 L 565.6123655478107 460.43331874210577 L 573.6123655478107 460.433319441488 L 573.6123664220385 450.43331944148804 L 569.6123657226562 458.4333190917969 L 565.6123664220385 450.43331874210577 M 573.612365023274 222.56666599910514 L 573.6123658975018 212.5666659991052 L 565.6123658975018 212.56666529972296 L 565.612365023274 222.5666652997229 L 569.6123657226562 214.56666564941406 L 573.612365023274 222.56666599910514 Z"/></clipPath><clipPath id="sUkPNHgmcFMr"><path fill="none" stroke="none" d="M 77.5 26.5 L 1336.5 26.5 L 1336.5 646.5 L 77.5 646.5 L 77.5 26.5"/></clipPath><clipPath id="EOTrCIQTTOfR"><path fill="none" stroke="none" d="M 77.5 26.5 L 1336.5 26.5 L 1336.5 646.5 L 77.5 646.5 L 77.5 26.5 M 1052.9052741368823 450.43331874210577 L 1052.9052732626544 460.43331874210577 L 1060.9052732626544 460.433319441488 L 1060.9052741368823 450.43331944148804 L 1056.9052734375 458.4333190917969 L 1052.9052741368823 450.43331874210577 M 1060.9052727381177 222.56666599910514 L 1060.9052736123456 212.5666659991052 L 1052.9052736123456 212.56666529972296 L 1052.9052727381177 222.5666652997229 L 1056.9052734375 214.56666564941406 L 1060.9052727381177 222.56666599910514 Z"/></clipPath><clipPath id="WWHPiIIpvTuB"><path fill="none" stroke="none" d="M 77.5 26.5 L 1336.5 26.5 L 1336.5 646.5 L 77.5 646.5 L 77.5 26.5"/></clipPath><clipPath id="SamGRTnePGZu"><path fill="none" stroke="none" d="M 77.5 26.5 L 1336.5 26.5 L 1336.5 646.5 L 77.5 646.5 L 77.5 26.5 Z"/></clipPath><clipPath id="gHgJubDarFcM"><path fill="none" stroke="none" d="M 77.5 26.5 L 1336.5 26.5 L 1336.5 646.5 L 77.5 646.5 L 77.5 26.5"/></clipPath><clipPath id="bqUCAVpiBdak"><path fill="none" stroke="none" d="M 77.5 26.5 L 1336.5 26.5 L 1336.5 646.5 L 77.5 646.5 L 77.5 26.5 Z"/></clipPath></defs><path fill="rgb(255,255,255)" stroke="none" paint-order="stroke" d="M 0.5 0.5 L 1366.5 0.5 L 1366.5 705.5 L 0.5 705.5 L 0.5 0.5" fill-opacity="1"/><rect fill="#FFFFFF" stroke="none" x="77" y="26" width="1259" height="620" transform="matrix(1, 0, 0, 1, 0.5, 0.5)"/><path fill="rgb(255,255,255)" stroke="none" paint-order="stroke" d="M 77.5 26.5 L 1336.5 26.5 L 1336.5 646.5 L 77.5 646.5 L 77.5 26.5" fill-opacity="1"/><path fill="none" stroke="rgb(229,229,229)" paint-order="fill" d="M 77.5 26.5 L 1336.5 26.5 L 1336.5 646.5 L 77.5 646.5 L 77.5 26.5" stroke-opacity="1" stroke-linejoin="bevel" stroke-miterlimit="10" stroke-dasharray=""/><path fill="none" stroke="rgb(229,229,229)" paint-order="fill" d="M 257.5 646.5 L 257.5 26.5 M 617.5 646.5 L 617.5 26.5 M 976.5 646.5 L 976.5 26.5" stroke-opacity="1" stroke-linejoin="bevel" stroke-miterlimit="10" stroke-dasharray="" clip-path="url(#ZIxIeTBGbAbm)"/><path fill="none" stroke="rgb(229,229,229)" paint-order="fill" d="M 77.5 612.5 L 1336.5 612.5 M 77.5 474.5 L 1336.5 474.5 M 77.5 336.5 L 1336.5 336.5 M 77.5 198.5 L 1336.5 198.5 M 77.5 60.5 L 1336.5 60.5" stroke-opacity="1" stroke-linejoin="bevel" stroke-miterlimit="10" stroke-dasharray="" clip-path="url(#OLtQLfmGyHZh)"/><path fill="none" stroke="rgb(0,0,0)" paint-order="fill" d="M 113.47142791748047 336.5 L 3350.89990234375 336.5" stroke-opacity="1" stroke-linejoin="bevel" stroke-miterlimit="10" stroke-dasharray="" clip-path="url(#OMGntxwtHbTZ)"/><path fill="rgb(0,0,0)" stroke="none" paint-order="stroke" d="M 258.8571472167969 336.5 A 1.5 1.5 0 0 1 255.85714721679688 336.5 A 1.5 1.5 0 0 1 258.8571472167969 336.5" fill-opacity="1" clip-path="url(#biMKrORkWrbm)"/><path fill="none" stroke="rgb(0,0,255)" paint-order="fill" d="M 437.21429443359375 337.2723083496094 L 356.62664794921875 337.2723083496094 L 352.6678466796875 337.2575988769531 L 330.0133056640625 337.1816101074219 L 352.65869140625 337.4793395996094 L 356.61749267578125 337.53228759765625 L 569.6123657226562 339.9811706542969 L 813.2587890625 339.3013000488281 L 1056.9052734375 338.6214294433594 L 1300.5517578125 335.82012939453125" stroke-opacity="1" stroke-linejoin="bevel" stroke-miterlimit="10" stroke-dasharray="" clip-path="url(#FVTsIafFBeWS)"/><path fill="none" stroke="rgb(255,0,0)" paint-order="fill" d="M 437.21429443359375 316.800537109375 L 352.728271484375 316.800537109375 L 348.1236877441406 317.258544921875 L 328.0953369140625 319.0545349121094 L 346.1304931640625 313.6202697753906 L 350.6087951660156 312.2412109375 L 569.6123657226562 257.6847839355469 L 813.2587890625 275.8047180175781 L 1056.9052734375 293.9246520996094 L 1300.5517578125 354.61993408203125" stroke-opacity="1" stroke-linejoin="bevel" stroke-miterlimit="10" stroke-dasharray="" clip-path="url(#SlmwaKEpIfGd)"/><path fill="none" stroke="rgb(255,0,0)" paint-order="fill" d="M 437.21429443359375 359.2830505371094 L 351.3532409667969 359.2830505371094 L 346.526123046875 358.71832275390625 L 327.4749755859375 356.7085876464844 L 344.1982727050781 362.3310546875 L 348.8246765136719 363.92333984375 L 569.6123657226562 424.00115966796875 L 813.2587890625 402.7978820800781 L 1056.9052734375 381.5946044921875 L 1300.5517578125 315.2967224121094" stroke-opacity="1" stroke-linejoin="bevel" stroke-miterlimit="10" stroke-dasharray="" clip-path="url(#SlmwaKEpIfGd)"/><path fill="none" stroke="rgb(0,0,0)" paint-order="fill" d="M 343.8140869140625 370.9444580078125 L 344.95159912109375 369.5385437011719 L 346.0196838378906 368.1326599121094 L 347.0223083496094 366.72674560546875 L 347.96295166015625 365.32086181640625 L 348.8446350097656 363.91497802734375 L 349.6699523925781 362.5090637207031 L 350.4413146972656 361.1031799316406 L 351.1607360839844 359.697265625 L 351.8301086425781 358.2913818359375 L 352.4510192871094 356.885498046875 L 353.0249328613281 355.4795837402344 L 353.55316162109375 354.0736999511719 L 354.0368347167969 352.66778564453125 L 354.4769592285156 351.26190185546875 L 354.87445068359375 349.85601806640625 L 355.2301025390625 348.4501037597656 L 355.5445861816406 347.0442199707031 L 355.8185119628906 345.6383361816406 L 356.0523986816406 344.232421875 L 356.2466735839844 342.8265380859375 L 356.40167236328125 341.4206237792969 L 356.5176696777344 340.0147399902344 L 356.5948791503906 338.6088562011719 L 356.6334533691406 337.20294189453125 L 356.6334533691406 335.79705810546875 L 356.5948791503906 334.3911437988281 L 356.5176696777344 332.9852600097656 L 356.40167236328125 331.5793762207031 L 356.2466735839844 330.1734619140625 L 356.0523986816406 328.767578125 L 355.8185119628906 327.3616638183594 L 355.5445861816406 325.9557800292969 L 355.2301025390625 324.5498962402344 L 354.87445068359375 323.14398193359375 L 354.4769592285156 321.73809814453125 L 354.0368347167969 320.33221435546875 L 353.55316162109375 318.9263000488281 L 353.0249328613281 317.5204162597656 L 352.4510192871094 316.114501953125 L 351.8301086425781 314.7086181640625 L 351.1607360839844 313.302734375 L 350.4413146972656 311.8968200683594 L 349.6699523925781 310.4909362792969 L 348.8446350097656 309.08502197265625 L 347.96295166015625 307.67913818359375 L 347.0223083496094 306.27325439453125 L 346.0196838378906 304.8673400878906 L 344.95159912109375 303.4614562988281 L 343.8140869140625 302.0555419921875" stroke-opacity="1" stroke-linejoin="bevel" stroke-miterlimit="10" stroke-dasharray="" clip-path="url(#CHSNPppozXoZ)"/><path fill="none" stroke="rgb(0,0,0)" paint-order="fill" d="M 336.5920104980469 370.9444580078125 L 338.0737609863281 369.5385437011719 L 339.4527893066406 368.1326599121094 L 340.7373962402344 366.72674560546875 L 341.9344177246094 365.32086181640625 L 343.0497131347656 363.91497802734375 L 344.0882873535156 362.5090637207031 L 345.05438232421875 361.1031799316406 L 345.95172119140625 359.697265625 L 346.78350830078125 358.2913818359375 L 347.55255126953125 356.885498046875 L 348.26129150390625 355.4795837402344 L 348.911865234375 354.0736999511719 L 349.5061950683594 352.66778564453125 L 350.0458984375 351.26190185546875 L 350.5323791503906 349.85601806640625 L 350.96697998046875 348.4501037597656 L 351.3507080078125 347.0442199707031 L 351.6845703125 345.6383361816406 L 351.96929931640625 344.232421875 L 352.2055969238281 342.8265380859375 L 352.3940124511719 341.4206237792969 L 352.5349426269531 340.0147399902344 L 352.62872314453125 338.6088562011719 L 352.6755676269531 337.20294189453125 L 352.6755676269531 335.79705810546875 L 352.62872314453125 334.3911437988281 L 352.5349426269531 332.9852600097656 L 352.3940124511719 331.5793762207031 L 352.2055969238281 330.1734619140625 L 351.96929931640625 328.767578125 L 351.6845703125 327.3616638183594 L 351.3507080078125 325.9557800292969 L 350.96697998046875 324.5498962402344 L 350.5323791503906 323.14398193359375 L 350.0458984375 321.73809814453125 L 349.5061950683594 320.33221435546875 L 348.911865234375 318.9263000488281 L 348.26129150390625 317.5204162597656 L 347.55255126953125 316.114501953125 L 346.78350830078125 314.7086181640625 L 345.95172119140625 313.302734375 L 345.05438232421875 311.8968200683594 L 344.0882873535156 310.4909362792969 L 343.0497131347656 309.08502197265625 L 341.9344177246094 307.67913818359375 L 340.7373962402344 306.27325439453125 L 339.4527893066406 304.8673400878906 L 338.0737609863281 303.4614562988281 L 336.5920104980469 302.0555419921875" stroke-opacity="1" stroke-linejoin="bevel" stroke-miterlimit="10" stroke-dasharray="" clip-path="url(#CHSNPppozXoZ)"/><path fill="none" stroke="rgb(0,0,0)" paint-order="fill" d="M 323.2843933105469 370.9444580078125 L 323.7608642578125 369.5385437011719 L 324.2255554199219 368.1326599121094 L 324.6778259277344 366.72674560546875 L 325.11700439453125 365.32086181640625 L 325.5423889160156 363.91497802734375 L 325.95330810546875 362.5090637207031 L 326.3489990234375 361.1031799316406 L 326.72869873046875 359.697265625 L 327.0916442871094 358.2913818359375 L 327.43707275390625 356.885498046875 L 327.76416015625 355.4795837402344 L 328.0721435546875 354.0736999511719 L 328.36016845703125 352.66778564453125 L 328.6275329589844 351.26190185546875 L 328.8734436035156 349.85601806640625 L 329.0971374511719 348.4501037597656 L 329.2979431152344 347.0442199707031 L 329.4752197265625 345.6383361816406 L 329.62835693359375 344.232421875 L 329.7568359375 342.8265380859375 L 329.86016845703125 341.4206237792969 L 329.9380187988281 340.0147399902344 L 329.9900817871094 338.6088562011719 L 330.01617431640625 337.20294189453125 L 330.01617431640625 335.79705810546875 L 329.9900817871094 334.3911437988281 L 329.9380187988281 332.9852600097656 L 329.86016845703125 331.5793762207031 L 329.7568359375 330.1734619140625 L 329.62835693359375 328.767578125 L 329.4752197265625 327.3616638183594 L 329.2979431152344 325.9557800292969 L 329.0971374511719 324.5498962402344 L 328.8734436035156 323.14398193359375 L 328.6275329589844 321.73809814453125 L 328.36016845703125 320.33221435546875 L 328.0721435546875 318.9263000488281 L 327.76416015625 317.5204162597656 L 327.43707275390625 316.114501953125 L 327.0916442871094 314.7086181640625 L 326.72869873046875 313.302734375 L 326.3489990234375 311.8968200683594 L 325.95330810546875 310.4909362792969 L 325.5423889160156 309.08502197265625 L 325.11700439453125 307.67913818359375 L 324.6778259277344 306.27325439453125 L 324.2255554199219 304.8673400878906 L 323.7608642578125 303.4614562988281 L 323.2843933105469 302.0555419921875" stroke-opacity="1" stroke-linejoin="bevel" stroke-miterlimit="10" stroke-dasharray="" clip-path="url(#CHSNPppozXoZ)"/><path fill="none" stroke="rgb(0,0,0)" paint-order="fill" d="M 317.3121032714844 370.9444580078125 L 316.37432861328125 369.5385437011719 L 315.4602966308594 368.1326599121094 L 314.57122802734375 366.72674560546875 L 313.7084045410156 365.32086181640625 L 312.8731384277344 363.91497802734375 L 312.06683349609375 362.5090637207031 L 311.2908630371094 361.1031799316406 L 310.5467224121094 359.697265625 L 309.8358154296875 358.2913818359375 L 309.1596984863281 356.885498046875 L 308.51983642578125 355.4795837402344 L 307.9177551269531 354.0736999511719 L 307.3549499511719 352.66778564453125 L 306.8328857421875 351.26190185546875 L 306.35296630859375 349.85601806640625 L 305.9166259765625 348.4501037597656 L 305.52508544921875 347.0442199707031 L 305.17962646484375 345.6383361816406 L 304.8813171386719 344.232421875 L 304.6311340332031 342.8265380859375 L 304.429931640625 341.4206237792969 L 304.2784118652344 340.0147399902344 L 304.1770935058594 338.6088562011719 L 304.1263427734375 337.20294189453125 L 304.1263427734375 335.79705810546875 L 304.1770935058594 334.3911437988281 L 304.2784118652344 332.9852600097656 L 304.429931640625 331.5793762207031 L 304.6311340332031 330.1734619140625 L 304.8813171386719 328.767578125 L 305.17962646484375 327.3616638183594 L 305.52508544921875 325.9557800292969 L 305.9166259765625 324.5498962402344 L 306.35296630859375 323.14398193359375 L 306.8328857421875 321.73809814453125 L 307.3549499511719 320.33221435546875 L 307.9177551269531 318.9263000488281 L 308.51983642578125 317.5204162597656 L 309.1596984863281 316.114501953125 L 309.8358154296875 314.7086181640625 L 310.5467224121094 313.302734375 L 311.2908630371094 311.8968200683594 L 312.06683349609375 310.4909362792969 L 312.8731384277344 309.08502197265625 L 313.7084045410156 307.67913818359375 L 314.57122802734375 306.27325439453125 L 315.4602966308594 304.8673400878906 L 316.37432861328125 303.4614562988281 L 317.3121032714844 302.0555419921875" stroke-opacity="1" stroke-linejoin="bevel" stroke-miterlimit="10" stroke-dasharray="" clip-path="url(#CHSNPppozXoZ)"/><path fill="none" stroke="rgb(0,0,0)" paint-order="fill" d="M 342.127685546875 302.0555419921875 L 337.5830383300781 293.21075439453125 L 332.03582763671875 284.90692138671875 L 325.5553283691406 277.24786376953125 L 318.2225646972656 270.32928466796875 L 310.1291809082031 264.23760986328125 L 301.37628173828125 259.04901123046875 L 292.0732727050781 254.82833862304688 L 282.3364562988281 251.6282958984375 L 272.2874450683594 249.48890686035156 L 262.0518493652344 248.4368896484375 L 251.75758361816406 248.4853973388672 L 241.53329467773438 249.63381958007812 L 231.5067596435547 251.86781311035156 L 221.80328369140625 255.15943908691406 L 212.5441131591797 259.46759033203125 L 203.84498596191406 264.7384338378906 L 195.81459045410156 270.9060363769531 L 188.55328369140625 277.8934020996094 L 182.15182495117188 285.6131591796875 L 176.69021606445312 293.9688720703125 L 172.2366943359375 302.8560791015625 L 168.846923828125 312.1637268066406 L 166.56326293945312 321.7755126953125 L 165.41424560546875 331.5713195800781 L 165.41424560546875 341.4286804199219 L 166.56326293945312 351.2244873046875 L 168.846923828125 360.8362731933594 L 172.2366943359375 370.1439208984375 L 176.69021606445312 379.0311279296875 L 182.15182495117188 387.3868408203125 L 188.55328369140625 395.1065979003906 L 195.81459045410156 402.0939636230469 L 203.84498596191406 408.2615661621094 L 212.5441131591797 413.53240966796875 L 221.80328369140625 417.8405456542969 L 231.5067596435547 421.1322021484375 L 241.53329467773438 423.3661804199219 L 251.75758361816406 424.5146179199219 L 262.0518493652344 424.5631103515625 L 272.2874450683594 423.5111083984375 L 282.3364562988281 421.3717041015625 L 292.0732727050781 418.1716613769531 L 301.37628173828125 413.95098876953125 L 310.1291809082031 408.76239013671875 L 318.2225646972656 402.67071533203125 L 325.5553283691406 395.75213623046875 L 332.03582763671875 388.09307861328125 L 337.5830383300781 379.78924560546875 L 342.127685546875 370.9444580078125" stroke-opacity="1" stroke-linejoin="bevel" stroke-miterlimit="10" stroke-dasharray="" clip-path="url(#CHSNPppozXoZ)"/><path fill="none" stroke="rgb(0,0,0)" paint-order="fill" d="M 1300.5517578125 233.1666717529297 L 1300.5517578125 439.8333435058594" stroke-opacity="1" stroke-linejoin="bevel" stroke-miterlimit="10" stroke-dasharray="" clip-path="url(#OQyBEVilXIUr)"/><path fill="none" stroke="rgb(0,0,0)" paint-order="fill" d="M 813.2587890625 249.0111083984375 L 813.2587890625 214.56666564941406" stroke-opacity="1" stroke-linejoin="bevel" stroke-miterlimit="10" stroke-dasharray="" clip-path="url(#OQyBEVilXIUr)"/><path fill="none" stroke="rgb(0,0,0)" paint-order="fill" d="M 813.2587890625 423.9888916015625 L 813.2587890625 458.4333190917969" stroke-opacity="1" stroke-linejoin="bevel" stroke-miterlimit="10" stroke-dasharray="" clip-path="url(#OQyBEVilXIUr)"/><path fill="none" stroke="rgb(0,0,0)" paint-order="fill" d="M 569.6123657226562 214.56666564941406 L 569.6123657226562 458.4333190917969" stroke-opacity="1" stroke-linejoin="bevel" stroke-miterlimit="10" stroke-dasharray="" clip-path="url(#OQyBEVilXIUr)"/><path fill="none" stroke="rgb(0,0,0)" paint-order="fill" d="M 1056.9052734375 214.56666564941406 L 1056.9052734375 458.4333190917969" stroke-opacity="1" stroke-linejoin="bevel" stroke-miterlimit="10" stroke-dasharray="" clip-path="url(#OQyBEVilXIUr)"/><path fill="none" stroke="rgb(0,0,0)" paint-order="fill" d="M 77.5 646.5 L 1336.5 646.5" stroke-opacity="1" stroke-linejoin="bevel" stroke-miterlimit="10" stroke-dasharray=""/><path fill="none" stroke="rgb(0,0,0)" paint-order="fill" d="M 257.5 652.5 L 257.5 644.5 M 617.5 652.5 L 617.5 644.5 M 976.5 652.5 L 976.5 644.5 M 1336.5 652.5 L 1336.5 644.5" stroke-opacity="1" stroke-linejoin="bevel" stroke-miterlimit="10" stroke-dasharray=""/><path fill="none" stroke="rgb(0,0,0)" paint-order="fill" d="M 185.5 650.5 L 185.5 646.5 M 113.5 650.5 L 113.5 646.5 M 257.5 650.5 L 257.5 646.5 M 329.5 650.5 L 329.5 646.5 M 401.5 650.5 L 401.5 646.5 M 473.5 650.5 L 473.5 646.5 M 545.5 650.5 L 545.5 646.5 M 617.5 650.5 L 617.5 646.5 M 689.5 650.5 L 689.5 646.5 M 760.5 650.5 L 760.5 646.5 M 832.5 650.5 L 832.5 646.5 M 904.5 650.5 L 904.5 646.5 M 976.5 650.5 L 976.5 646.5 M 1048.5 650.5 L 1048.5 646.5 M 1120.5 650.5 L 1120.5 646.5 M 1192.5 650.5 L 1192.5 646.5 M 1264.5 650.5 L 1264.5 646.5 M 1336.5 650.5 L 1336.5 646.5" stroke-opacity="1" stroke-linejoin="bevel" stroke-miterlimit="10" stroke-dasharray=""/><text fill="rgb(68,68,68)" stroke="none" font-family="helvetica" font-size="14pt" font-style="normal" font-weight="normal" text-decoration="normal" x="251.6654806137085" y="670.3619801839193" text-anchor="start" dominant-baseline="alphabetic" transform="matrix(1, 0, 0, 1, 0.5, 0.5)" fill-opacity="1">0</text><text fill="rgb(68,68,68)" stroke="none" font-family="helvetica" font-size="14pt" font-style="normal" font-weight="normal" text-decoration="normal" x="606.1880779266357" y="670.3619801839193" text-anchor="start" dominant-baseline="alphabetic" transform="matrix(1, 0, 0, 1, 0.5, 0.5)" fill-opacity="1">50</text><text fill="rgb(68,68,68)" stroke="none" font-family="helvetica" font-size="14pt" font-style="normal" font-weight="normal" text-decoration="normal" x="960.7107057571411" y="670.3619801839193" text-anchor="start" dominant-baseline="alphabetic" transform="matrix(1, 0, 0, 1, 0.5, 0.5)" fill-opacity="1">100</text><text fill="rgb(68,68,68)" stroke="none" font-family="helvetica" font-size="14pt" font-style="normal" font-weight="normal" text-decoration="normal" x="1320.4250001907349" y="670.3619801839193" text-anchor="start" dominant-baseline="alphabetic" transform="matrix(1, 0, 0, 1, 0.5, 0.5)" fill-opacity="1">150</text><text fill="rgb(68,68,68)" stroke="none" font-family="helvetica" font-size="16pt" font-style="italic" font-weight="normal" text-decoration="normal" x="674.5" y="697.4348968505859" text-anchor="start" dominant-baseline="alphabetic" transform="matrix(1, 0, 0, 1, 0.5, 0.5)" fill-opacity="1">x [mm]</text><path fill="none" stroke="rgb(0,0,0)" paint-order="fill" d="M 77.5 646.5 L 77.5 26.5" stroke-opacity="1" stroke-linejoin="bevel" stroke-miterlimit="10" stroke-dasharray=""/><path fill="none" stroke="rgb(0,0,0)" paint-order="fill" d="M 71.5 612.5 L 79.5 612.5 M 71.5 474.5 L 79.5 474.5 M 71.5 336.5 L 79.5 336.5 M 71.5 198.5 L 79.5 198.5 M 71.5 60.5 L 79.5 60.5" stroke-opacity="1" stroke-linejoin="bevel" stroke-miterlimit="10" stroke-dasharray=""/><path fill="none" stroke="rgb(0,0,0)" paint-order="fill" d="M 73.5 639.5 L 77.5 639.5 M 73.5 612.5 L 77.5 612.5 M 73.5 584.5 L 77.5 584.5 M 73.5 556.5 L 77.5 556.5 M 73.5 529.5 L 77.5 529.5 M 73.5 501.5 L 77.5 501.5 M 73.5 474.5 L 77.5 474.5 M 73.5 446.5 L 77.5 446.5 M 73.5 419.5 L 77.5 419.5 M 73.5 391.5 L 77.5 391.5 M 73.5 364.5 L 77.5 364.5 M 73.5 336.5 L 77.5 336.5 M 73.5 308.5 L 77.5 308.5 M 73.5 281.5 L 77.5 281.5 M 73.5 253.5 L 77.5 253.5 M 73.5 226.5 L 77.5 226.5 M 73.5 198.5 L 77.5 198.5 M 73.5 171.5 L 77.5 171.5 M 73.5 143.5 L 77.5 143.5 M 73.5 116.5 L 77.5 116.5 M 73.5 88.5 L 77.5 88.5 M 73.5 60.5 L 77.5 60.5 M 73.5 33.5 L 77.5 33.5" stroke-opacity="1" stroke-linejoin="bevel" stroke-miterlimit="10" stroke-dasharray=""/><text fill="rgb(68,68,68)" stroke="none" font-family="helvetica" font-size="14pt" font-style="normal" font-weight="normal" text-decoration="normal" x="34.33333396911621" y="618.2365320841471" text-anchor="start" dominant-baseline="alphabetic" transform="matrix(1, 0, 0, 1, 0.5, 0.5)" fill-opacity="1">−40</text><text fill="rgb(68,68,68)" stroke="none" font-family="helvetica" font-size="14pt" font-style="normal" font-weight="normal" text-decoration="normal" x="34.33333396911621" y="480.4587610880534" text-anchor="start" dominant-baseline="alphabetic" transform="matrix(1, 0, 0, 1, 0.5, 0.5)" fill-opacity="1">−20</text><text fill="rgb(68,68,68)" stroke="none" font-family="helvetica" font-size="14pt" font-style="normal" font-weight="normal" text-decoration="normal" x="55.61666679382324" y="342.68099009195964" text-anchor="start" dominant-baseline="alphabetic" transform="matrix(1, 0, 0, 1, 0.5, 0.5)" fill-opacity="1">0</text><text fill="rgb(68,68,68)" stroke="none" font-family="helvetica" font-size="14pt" font-style="normal" font-weight="normal" text-decoration="normal" x="45.233333587646484" y="204.90321909586586" text-anchor="start" dominant-baseline="alphabetic" transform="matrix(1, 0, 0, 1, 0.5, 0.5)" fill-opacity="1">20</text><text fill="rgb(68,68,68)" stroke="none" font-family="helvetica" font-size="14pt" font-style="normal" font-weight="normal" text-decoration="normal" x="45.233333587646484" y="67.12543284098307" text-anchor="start" dominant-baseline="alphabetic" transform="matrix(1, 0, 0, 1, 0.5, 0.5)" fill-opacity="1">40</text><text fill="rgb(68,68,68)" stroke="none" font-family="helvetica" font-size="16pt" font-style="italic" font-weight="normal" text-decoration="normal" x="-5.666666030883789" y="331.5104166666667" text-anchor="start" dominant-baseline="alphabetic" transform="matrix(6.123233995736766e-17, -1, 1, 6.123233995736766e-17, -309.1666660308838, 362.8333339691162)" fill-opacity="1">y [mm]</text><path fill="rgb(255,255,255)" stroke="rgb(229,229,229)" paint-order="fill" d="M 87.5 36.5 L 203.5 36.5 L 203.5 99.5 L 87.5 99.5 L 87.5 36.5" fill-opacity="0.9490196078431372" clip-path="url(#CxTxrtpHqneI)" stroke-opacity="0.5019607843137255" stroke-linejoin="bevel" stroke-miterlimit="10" stroke-dasharray=""/><g clip-path="url(#CxTxrtpHqneI)"><text fill="rgb(68,68,68)" stroke="none" font-family="helvetica" font-size="13px" font-style="normal" font-weight="normal" text-decoration="normal" x="122" y="56" text-anchor="start" dominant-baseline="central" transform="matrix(1, 0, 0, 1, 0.5, 0.5)" fill-opacity="1">Chief ray</text></g><path fill="none" stroke="rgb(0,0,255)" paint-order="fill" d="M 97.5 56.5 L 117.5 56.5" stroke-opacity="1" stroke-linejoin="bevel" stroke-miterlimit="10" stroke-dasharray="" clip-path="url(#CxTxrtpHqneI)"/><g clip-path="url(#CxTxrtpHqneI)"><text fill="rgb(68,68,68)" stroke="none" font-family="helvetica" font-size="13px" font-style="normal" font-weight="normal" text-decoration="normal" x="122" y="79" text-anchor="start" dominant-baseline="central" transform="matrix(1, 0, 0, 1, 0.5, 0.5)" fill-opacity="1">Marginal ray</text></g><path fill="none" stroke="rgb(255,0,0)" paint-order="fill" d="M 97.5 79.5 L 117.5 79.5" stroke-opacity="1" stroke-linejoin="bevel" stroke-miterlimit="10" stroke-dasharray="" clip-path="url(#CxTxrtpHqneI)"/><path fill="none" stroke="rgb(0,0,0)" paint-order="fill" d="M 565.6123664220385 450.43331874210577 L 569.6123657226562 458.4333190917969 L 573.6123664220385 450.43331944148804" stroke-opacity="1" stroke-linejoin="bevel" stroke-miterlimit="10" stroke-dasharray="" clip-path="url(#gwTDfHvkVThP)"/><path fill="none" stroke="rgb(0,0,0)" paint-order="fill" d="M 573.612365023274 222.56666599910514 L 569.6123657226562 214.56666564941406 L 565.612365023274 222.5666652997229" stroke-opacity="1" stroke-linejoin="bevel" stroke-miterlimit="10" stroke-dasharray="" clip-path="url(#gwTDfHvkVThP)"/><path fill="none" stroke="rgb(0,0,0)" paint-order="fill" d="M 569.6123657226562 214.56666564941406 L 569.6123657226562 458.4333190917969" stroke-opacity="1" stroke-linejoin="bevel" stroke-miterlimit="10" stroke-dasharray="" clip-path="url(#FDMcOuCApVbQ)"/><path fill="none" stroke="rgb(0,0,0)" paint-order="fill" d="M 1052.9052741368823 450.43331874210577 L 1056.9052734375 458.4333190917969 L 1060.9052741368823 450.43331944148804" stroke-opacity="1" stroke-linejoin="bevel" stroke-miterlimit="10" stroke-dasharray="" clip-path="url(#sUkPNHgmcFMr)"/><path fill="none" stroke="rgb(0,0,0)" paint-order="fill" d="M 1060.9052727381177 222.56666599910514 L 1056.9052734375 214.56666564941406 L 1052.9052727381177 222.5666652997229" stroke-opacity="1" stroke-linejoin="bevel" stroke-miterlimit="10" stroke-dasharray="" clip-path="url(#sUkPNHgmcFMr)"/><path fill="none" stroke="rgb(0,0,0)" paint-order="fill" d="M 1056.9052734375 214.56666564941406 L 1056.9052734375 458.4333190917969" stroke-opacity="1" stroke-linejoin="bevel" stroke-miterlimit="10" stroke-dasharray="" clip-path="url(#EOTrCIQTTOfR)"/><path fill="none" stroke="rgb(0,0,0)" paint-order="fill" d="M 809.2587890625 249.0111083984375 L 817.2587890625 249.0111083984375" stroke-opacity="1" stroke-linejoin="bevel" stroke-miterlimit="10" stroke-dasharray="" clip-path="url(#WWHPiIIpvTuB)"/><path fill="none" stroke="rgb(0,0,0)" paint-order="fill" d="M 813.2587890625 249.0111083984375 L 813.2587890625 214.56666564941406" stroke-opacity="1" stroke-linejoin="bevel" stroke-miterlimit="10" stroke-dasharray="" clip-path="url(#SamGRTnePGZu)"/><path fill="none" stroke="rgb(0,0,0)" paint-order="fill" d="M 817.2587890625 423.9888919512536 L 809.2587890625 423.9888912518714" stroke-opacity="1" stroke-linejoin="bevel" stroke-miterlimit="10" stroke-dasharray="" clip-path="url(#gHgJubDarFcM)"/><path fill="none" stroke="rgb(0,0,0)" paint-order="fill" d="M 813.2587890625 423.9888916015625 L 813.2587890625 458.4333190917969" stroke-opacity="1" stroke-linejoin="bevel" stroke-miterlimit="10" stroke-dasharray="" clip-path="url(#bqUCAVpiBdak)"/><text fill="rgb(68,68,68)" stroke="none" font-family="helvetica" font-size="13px" font-style="normal" font-weight="bold" text-decoration="normal" x="77" y="18.26416015625" text-anchor="start" dominant-baseline="alphabetic" transform="matrix(1, 0, 0, 1, 0.5, 0.5)" fill-opacity="1">P3 Infinity</text></svg>