<?xml version="1.0" encoding="UTF-8" standalone="no"?>
<svg
   version="1.1"
   width="645.1814"
   height="442.53638"
   id="svg167"
   sodipodi:docname="pp.svg"
   inkscape:version="1.2.2 (732a01da63, 2022-12-09)"
   xmlns:inkscape="http://www.inkscape.org/namespaces/inkscape"
   xmlns:sodipodi="http://sodipodi.sourceforge.net/DTD/sodipodi-0.dtd"
   xmlns="http://www.w3.org/2000/svg"
   xmlns:svg="http://www.w3.org/2000/svg">
  <sodipodi:namedview
     id="namedview169"
     pagecolor="#ffffff"
     bordercolor="#000000"
     borderopacity="0.25"
     inkscape:showpageshadow="2"
     inkscape:pageopacity="0.0"
     inkscape:pagecheckerboard="0"
     inkscape:deskcolor="#d1d1d1"
     showgrid="false"
     inkscape:zoom="0.97731889"
     inkscape:cx="312.58989"
     inkscape:cy="213.85036"
     inkscape:window-width="2160"
     inkscape:window-height="1334"
     inkscape:window-x="-4"
     inkscape:window-y="1589"
     inkscape:window-maximized="1"
     inkscape:current-layer="svg167" />
  <defs
     id="defs53">
    <clipPath
       id="FgvnDSrpTGDT">
      <path
         fill="none"
         stroke="none"
         d="m 77.5,26.5 h 1259 v 598 H 77.5 v -598"
         id="path2" />
    </clipPath>
    <clipPath
       id="VhPKEtpGmwdm">
      <path
         fill="none"
         stroke="none"
         d="m 77.5,26.5 h 1259 v 598 H 77.5 v -598"
         id="path5" />
    </clipPath>
    <clipPath
       id="fTQtxcPevPmr">
      <path
         fill="none"
         stroke="none"
         d="m 77.5,26.5 h 1259 v 598 H 77.5 v -598"
         id="path8" />
    </clipPath>
    <clipPath
       id="aGlTpAaaybAU">
      <path
         fill="none"
         stroke="none"
         d="m 77.5,26.5 h 1259 v 598 H 77.5 v -598"
         id="path11" />
    </clipPath>
    <clipPath
       id="dJavyTVSZqIN">
      <path
         fill="none"
         stroke="none"
         d="m 77.5,26.5 h 1259 v 598 H 77.5 v -598"
         id="path14" />
    </clipPath>
    <clipPath
       id="CdmVkpGdpEyT">
      <path
         fill="none"
         stroke="none"
         d="m 77.5,26.5 h 1259 v 598 H 77.5 v -598"
         id="path17" />
    </clipPath>
    <clipPath
       id="gWoEzXPrCThL">
      <path
         fill="none"
         stroke="none"
         d="m 77.5,26.5 h 1259 v 598 H 77.5 v -598"
         id="path20" />
    </clipPath>
    <clipPath
       id="ocsUIuLuCVtD">
      <path
         fill="none"
         stroke="none"
         d="m 77.5,26.5 h 1259 v 598 H 77.5 v -598"
         id="path23" />
    </clipPath>
    <clipPath
       id="SvrThOmllnSG">
      <path
         fill="none"
         stroke="none"
         d="m 77.5,26.5 h 1259 v 598 H 77.5 v -598"
         id="path26" />
    </clipPath>
    <clipPath
       id="TMMzztndCkTA">
      <path
         fill="none"
         stroke="none"
         d="m 77.5,26.5 h 1259 v 598 H 77.5 v -598"
         id="path29" />
    </clipPath>
    <clipPath
       id="FbPrONiVAKPm">
      <path
         fill="none"
         stroke="none"
         d="m 77.5,26.5 h 1259 v 598 H 77.5 v -598 m 488.11237,408.60666 0,10 8,0 0,-10 -4,8 -4,-8 m 8,-219.21333 0,-10 -8,0 0,10 4,-8 z"
         id="path32" />
    </clipPath>
    <clipPath
       id="bTeFZfWdIOfb">
      <path
         fill="none"
         stroke="none"
         d="m 77.5,26.5 h 1259 v 598 H 77.5 v -598"
         id="path35" />
    </clipPath>
    <clipPath
       id="ZUZMcLMQKdUX">
      <path
         fill="none"
         stroke="none"
         d="m 77.5,26.5 h 1259 v 598 H 77.5 v -598 m 975.4053,408.60666 0,10 8,0 0,-10 -4,8 -4,-8 m 8,-219.21333 0,-10 -8,0 0,10 4,-8 z"
         id="path38" />
    </clipPath>
    <clipPath
       id="oUnBsXTitloa">
      <path
         fill="none"
         stroke="none"
         d="m 77.5,26.5 h 1259 v 598 H 77.5 v -598"
         id="path41" />
    </clipPath>
    <clipPath
       id="dauWukrXqzBQ">
      <path
         fill="none"
         stroke="none"
         d="m 77.5,26.5 h 1259 v 598 H 77.5 Z"
         id="path44" />
    </clipPath>
    <clipPath
       id="OsDrMZhiWwvi">
      <path
         fill="none"
         stroke="none"
         d="m 77.5,26.5 h 1259 v 598 H 77.5 v -598"
         id="path47" />
    </clipPath>
    <clipPath
       id="sFcypZUSNbvk">
      <path
         fill="none"
         stroke="none"
         d="m 77.5,26.5 h 1259 v 598 H 77.5 Z"
         id="path50" />
    </clipPath>
    <clipPath
       id="VSWQzkFilEGo">
      <path
         fill="none"
         stroke="none"
         d="m 77.5,26.5 h 1284 v 598 H 77.5 v -598"
         id="path1647" />
    </clipPath>
    <clipPath
       id="wecwtJMpNpBJ">
      <path
         fill="none"
         stroke="none"
         d="m 77.5,26.5 h 1284 v 598 H 77.5 v -598"
         id="path1650" />
    </clipPath>
    <clipPath
       id="dJWPIDCCiHBp">
      <path
         fill="none"
         stroke="none"
         d="m 77.5,26.5 h 1284 v 598 H 77.5 v -598"
         id="path1653" />
    </clipPath>
    <clipPath
       id="clipPath2445">
      <path
         fill="none"
         stroke="none"
         d="m 77.5,26.5 h 1284 v 598 H 77.5 v -598"
         id="path2443" />
    </clipPath>
    <clipPath
       id="xvmywRVIHIKJ">
      <path
         fill="none"
         stroke="none"
         d="m 77.5,26.5 h 1284 v 598 H 77.5 v -598"
         id="path1656" />
    </clipPath>
    <clipPath
       id="clipPath2451">
      <path
         fill="none"
         stroke="none"
         d="m 77.5,26.5 h 1284 v 598 H 77.5 v -598"
         id="path2449" />
    </clipPath>
    <clipPath
       id="clipPath2455">
      <path
         fill="none"
         stroke="none"
         d="m 77.5,26.5 h 1284 v 598 H 77.5 v -598"
         id="path2453" />
    </clipPath>
    <clipPath
       id="clipPath2459">
      <path
         fill="none"
         stroke="none"
         d="m 77.5,26.5 h 1284 v 598 H 77.5 v -598"
         id="path2457" />
    </clipPath>
    <clipPath
       id="clipPath2463">
      <path
         fill="none"
         stroke="none"
         d="m 77.5,26.5 h 1284 v 598 H 77.5 v -598"
         id="path2461" />
    </clipPath>
    <clipPath
       id="RzWnQhstlgDE">
      <path
         fill="none"
         stroke="none"
         d="m 77.5,26.5 h 1284 v 598 H 77.5 v -598"
         id="path5413" />
    </clipPath>
    <clipPath
       id="xhsTloWGEMGu">
      <path
         fill="none"
         stroke="none"
         d="m 77.5,26.5 h 1284 v 598 H 77.5 v -598"
         id="path5416" />
    </clipPath>
    <clipPath
       id="txcQxkcLHybT">
      <path
         fill="none"
         stroke="none"
         d="m 77.5,26.5 h 1284 v 598 H 77.5 v -598"
         id="path5419" />
    </clipPath>
    <clipPath
       id="clipPath6126">
      <path
         fill="none"
         stroke="none"
         d="m 77.5,26.5 h 1284 v 598 H 77.5 v -598"
         id="path6124" />
    </clipPath>
    <clipPath
       id="lWknKVDckufe">
      <path
         fill="none"
         stroke="none"
         d="m 77.5,26.5 h 1284 v 598 H 77.5 v -598"
         id="path5422" />
    </clipPath>
    <clipPath
       id="clipPath6132">
      <path
         fill="none"
         stroke="none"
         d="m 77.5,26.5 h 1284 v 598 H 77.5 v -598"
         id="path6130" />
    </clipPath>
    <clipPath
       id="clipPath6136">
      <path
         fill="none"
         stroke="none"
         d="m 77.5,26.5 h 1284 v 598 H 77.5 v -598"
         id="path6134" />
    </clipPath>
    <clipPath
       id="clipPath6140">
      <path
         fill="none"
         stroke="none"
         d="m 77.5,26.5 h 1284 v 598 H 77.5 v -598"
         id="path6138" />
    </clipPath>
    <clipPath
       id="clipPath6144">
      <path
         fill="none"
         stroke="none"
         d="m 77.5,26.5 h 1284 v 598 H 77.5 v -598"
         id="path6142" />
    </clipPath>
    <marker
       style="overflow:visible"
       id="marker7313-3"
       refX="0"
       refY="0"
       orient="auto-start-reverse"
       inkscape:stockid="Arrow1L"
       markerWidth="8.75"
       markerHeight="5"
       viewBox="0 0 8.75 5"
       inkscape:isstock="true"
       inkscape:collect="always"
       preserveAspectRatio="xMidYMid">
      <path
         style="fill:context-stroke;fill-rule:evenodd;stroke:none"
         d="M 0,0 5,-5 -12.5,0 5,5 Z"
         id="path7311-0"
         transform="scale(-0.5)" />
    </marker>
    <marker
       style="overflow:visible"
       id="marker7313-3-9"
       refX="0"
       refY="0"
       orient="auto-start-reverse"
       inkscape:stockid="Arrow1L"
       markerWidth="8.75"
       markerHeight="5"
       viewBox="0 0 8.75 5"
       inkscape:isstock="true"
       inkscape:collect="always"
       preserveAspectRatio="xMidYMid">
      <path
         style="fill:context-stroke;fill-rule:evenodd;stroke:none"
         d="M 0,0 5,-5 -12.5,0 5,5 Z"
         id="path7311-0-7"
         transform="scale(-0.5)" />
    </marker>
    <marker
       style="overflow:visible"
       id="marker7313-3-8"
       refX="0"
       refY="0"
       orient="auto-start-reverse"
       inkscape:stockid="Arrow1L"
       markerWidth="8.75"
       markerHeight="5"
       viewBox="0 0 8.75 5"
       inkscape:isstock="true"
       inkscape:collect="always"
       preserveAspectRatio="xMidYMid">
      <path
         style="fill:context-stroke;fill-rule:evenodd;stroke:none"
         d="M 0,0 5,-5 -12.5,0 5,5 Z"
         id="path7311-0-6"
         transform="scale(-0.5)" />
    </marker>
    <marker
       style="overflow:visible"
       id="marker7313-3-8-2"
       refX="0"
       refY="0"
       orient="auto-start-reverse"
       inkscape:stockid="Arrow1L"
       markerWidth="8.75"
       markerHeight="5"
       viewBox="0 0 8.75 5"
       inkscape:isstock="true"
       inkscape:collect="always"
       preserveAspectRatio="xMidYMid">
      <path
         style="fill:context-stroke;fill-rule:evenodd;stroke:none"
         d="M 0,0 5,-5 -12.5,0 5,5 Z"
         id="path7311-0-6-6"
         transform="scale(-0.5)" />
    </marker>
    <clipPath
       id="biMKrORkWrbm">
      <path
         fill="none"
         stroke="none"
         d="m 77.5,26.5 h 1259 v 620 H 77.5 v -620"
         id="path8801" />
    </clipPath>
    <clipPath
       id="SlmwaKEpIfGd">
      <path
         fill="none"
         stroke="none"
         d="m 77.5,26.5 h 1259 v 620 H 77.5 v -620"
         id="path8807" />
    </clipPath>
    <clipPath
       id="clipPath10536">
      <path
         fill="none"
         stroke="none"
         d="m 77.5,26.5 h 1259 v 620 H 77.5 v -620"
         id="path10534" />
    </clipPath>
    <clipPath
       id="CHSNPppozXoZ">
      <path
         fill="none"
         stroke="none"
         d="m 77.5,26.5 h 1259 v 620 H 77.5 v -620"
         id="path8810" />
    </clipPath>
    <clipPath
       id="clipPath10542">
      <path
         fill="none"
         stroke="none"
         d="m 77.5,26.5 h 1259 v 620 H 77.5 v -620"
         id="path10540" />
    </clipPath>
    <clipPath
       id="clipPath10546">
      <path
         fill="none"
         stroke="none"
         d="m 77.5,26.5 h 1259 v 620 H 77.5 v -620"
         id="path10544" />
    </clipPath>
    <clipPath
       id="clipPath10550">
      <path
         fill="none"
         stroke="none"
         d="m 77.5,26.5 h 1259 v 620 H 77.5 v -620"
         id="path10548" />
    </clipPath>
    <clipPath
       id="clipPath10554">
      <path
         fill="none"
         stroke="none"
         d="m 77.5,26.5 h 1259 v 620 H 77.5 v -620"
         id="path10552" />
    </clipPath>
    <clipPath
       id="RzWnQhstlgDE-6">
      <path
         fill="none"
         stroke="none"
         d="m 77.5,26.5 h 1284 v 598 H 77.5 v -598"
         id="path5413-4" />
    </clipPath>
    <clipPath
       id="xhsTloWGEMGu-7">
      <path
         fill="none"
         stroke="none"
         d="m 77.5,26.5 h 1284 v 598 H 77.5 v -598"
         id="path5416-6" />
    </clipPath>
    <clipPath
       id="txcQxkcLHybT-7">
      <path
         fill="none"
         stroke="none"
         d="m 77.5,26.5 h 1284 v 598 H 77.5 v -598"
         id="path5419-3" />
    </clipPath>
    <clipPath
       id="clipPath11492">
      <path
         fill="none"
         stroke="none"
         d="m 77.5,26.5 h 1284 v 598 H 77.5 v -598"
         id="path11490" />
    </clipPath>
    <clipPath
       id="lWknKVDckufe-3">
      <path
         fill="none"
         stroke="none"
         d="m 77.5,26.5 h 1284 v 598 H 77.5 v -598"
         id="path5422-6" />
    </clipPath>
    <clipPath
       id="clipPath11498">
      <path
         fill="none"
         stroke="none"
         d="m 77.5,26.5 h 1284 v 598 H 77.5 v -598"
         id="path11496" />
    </clipPath>
    <clipPath
       id="clipPath11502">
      <path
         fill="none"
         stroke="none"
         d="m 77.5,26.5 h 1284 v 598 H 77.5 v -598"
         id="path11500" />
    </clipPath>
    <clipPath
       id="clipPath11506">
      <path
         fill="none"
         stroke="none"
         d="m 77.5,26.5 h 1284 v 598 H 77.5 v -598"
         id="path11504" />
    </clipPath>
    <clipPath
       id="clipPath11510">
      <path
         fill="none"
         stroke="none"
         d="m 77.5,26.5 h 1284 v 598 H 77.5 v -598"
         id="path11508" />
    </clipPath>
  </defs>
  <text
     xml:space="preserve"
     style="font-size:29.3333px;font-family:Calibri;-inkscape-font-specification:Calibri;fill:none;stroke:#ff0000;stroke-width:1;stroke-dasharray:none;stroke-dashoffset:0;stroke-opacity:1"
     x="160.10693"
     y="9.7656622"
     id="text11798-5"><tspan
       sodipodi:role="line"
       id="tspan11796-0"
       x="160.10693"
       y="9.7656622"
       style="fill:#000000;fill-opacity:1;stroke:none;stroke-opacity:1" /></text>
  <g
     id="g12495"
     transform="translate(-164.263,-100.37621)">
    <g
       id="g2663"
       transform="translate(15.576271,-112.86864)">
      <path
         fill="none"
         stroke="#000000"
         paint-order="fill"
         d="m 343.81409,358.72223 1.13751,-1.35602 1.06808,-1.35602 1.00263,-1.35598 0.94064,-1.35602 0.88169,-1.35602 0.82531,-1.35599 0.77136,-1.35602 0.71943,-1.35601 0.66937,-1.35602 0.62091,-1.35599 0.57391,-1.35602 0.52823,-1.35602 0.48367,-1.35598 0.44013,-1.35602 0.39749,-1.35602 0.35565,-1.35602 0.31449,-1.35599 0.27392,-1.35601 0.23389,-1.35602 0.19427,-1.35599 0.155,-1.35602 0.116,-1.35602 0.0772,-1.35598 0.0386,-1.35602 v -1.35602 l -0.0386,-1.35602 -0.0772,-1.35598 -0.116,-1.35602 -0.155,-1.35602 -0.19427,-1.35599 -0.23389,-1.35602 -0.27392,-1.35601 -0.31449,-1.35599 -0.35565,-1.35602 -0.39749,-1.35602 -0.44013,-1.35602 -0.48367,-1.35598 -0.52823,-1.35602 -0.57391,-1.35602 -0.62091,-1.35599 -0.66937,-1.35602 -0.71943,-1.35601 -0.77136,-1.35602 -0.82531,-1.35599 -0.88169,-1.35602 -0.94064,-1.35602 -1.00263,-1.35598 -1.06808,-1.35602 -1.13751,-1.35602"
         stroke-opacity="1"
         stroke-linejoin="bevel"
         stroke-miterlimit="10"
         stroke-dasharray="none"
         clip-path="url(#gWoEzXPrCThL)"
         id="path77" />
      <path
         style="fill:none;stroke:#030000;stroke-width:1;stroke-dasharray:none;stroke-opacity:1"
         d="m 152.68673,325.5 302.86,-3.6e-4"
         id="path1231"
         sodipodi:nodetypes="cc" />
      <path
         style="fill:none;stroke:#ff0000;stroke-width:1;stroke-dasharray:3, 3;stroke-dashoffset:0;stroke-opacity:1"
         d="M 356.50787,325.50805 H 321.62289"
         id="path611-9-6"
         sodipodi:nodetypes="cc" />
      <path
         fill="#000000"
         stroke="none"
         paint-order="stroke"
         d="m 258.85715,325.5 a 1.5,1.5 0 0 1 -3,0 1.5,1.5 0 0 1 3,0"
         fill-opacity="1"
         clip-path="url(#aGlTpAaaybAU)"
         id="path69" />
      <path
         fill="none"
         stroke="rgb(0,0,255)"
         paint-order="fill"
         d="M 437.21429,325.5 H 356.63828"
         stroke-opacity="1"
         stroke-linejoin="bevel"
         stroke-miterlimit="10"
         stroke-dasharray="none"
         clip-path="url(#dJavyTVSZqIN)"
         id="path71"
         style="stroke:#ff0000;stroke-opacity:1"
         sodipodi:nodetypes="cc" />
      <path
         fill="none"
         stroke="#ff0000"
         paint-order="fill"
         d="m 437.21429,316.37225 h -81.45556 l 81.45004,-25.74436"
         stroke-opacity="1"
         stroke-linejoin="bevel"
         stroke-miterlimit="10"
         stroke-dasharray="none"
         clip-path="url(#CdmVkpGdpEyT)"
         id="path73"
         sodipodi:nodetypes="ccc" />
      <path
         fill="none"
         stroke="#ff0000"
         paint-order="fill"
         d="M 437.21429,334.62775 H 355.75873 L 438.6558,362.9044"
         stroke-opacity="1"
         stroke-linejoin="bevel"
         stroke-miterlimit="10"
         stroke-dasharray="none"
         clip-path="url(#CdmVkpGdpEyT)"
         id="path75"
         sodipodi:nodetypes="ccc" />
      <path
         fill="none"
         stroke="#000000"
         paint-order="fill"
         d="m 336.59201,358.72223 1.48175,-1.35602 1.37903,-1.35602 1.28461,-1.35598 1.19702,-1.35602 1.11529,-1.35602 1.03858,-1.35599 0.96609,-1.35602 0.89734,-1.35601 0.83179,-1.35602 0.76904,-1.35599 0.70874,-1.35602 0.65058,-1.35602 0.59433,-1.35598 0.5397,-1.35602 0.48648,-1.35602 0.4346,-1.35602 0.38373,-1.35599 0.33386,-1.35601 0.28473,-1.35602 0.2363,-1.35599 0.18841,-1.35602 0.14093,-1.35602 0.0938,-1.35598 0.0469,-1.35602 v -1.35602 l -0.0469,-1.35602 -0.0938,-1.35598 -0.14093,-1.35602 -0.18841,-1.35602 -0.2363,-1.35599 -0.28473,-1.35602 -0.33386,-1.35601 -0.38373,-1.35599 -0.4346,-1.35602 -0.48648,-1.35602 -0.5397,-1.35602 -0.59433,-1.35598 -0.65058,-1.35602 -0.70874,-1.35602 -0.76904,-1.35599 -0.83179,-1.35602 -0.89734,-1.35601 -0.96609,-1.35602 -1.03858,-1.35599 -1.11529,-1.35602 -1.19702,-1.35602 -1.28461,-1.35598 -1.37903,-1.35602 -1.48175,-1.35602"
         stroke-opacity="1"
         stroke-linejoin="bevel"
         stroke-miterlimit="10"
         stroke-dasharray="none"
         clip-path="url(#gWoEzXPrCThL)"
         id="path79" />
      <path
         fill="none"
         stroke="#000000"
         paint-order="fill"
         d="m 323.28439,358.72223 0.47647,-1.35602 0.4647,-1.35602 0.45227,-1.35598 0.43917,-1.35602 0.42539,-1.35602 0.41092,-1.35599 0.39569,-1.35602 0.3797,-1.35601 0.36294,-1.35602 0.34543,-1.35599 0.32709,-1.35602 0.30798,-1.35602 0.28803,-1.35598 0.26736,-1.35602 0.24591,-1.35602 0.2237,-1.35602 0.2008,-1.35599 0.17728,-1.35601 0.15314,-1.35602 0.12848,-1.35599 0.10333,-1.35602 0.0779,-1.35602 0.0521,-1.35598 0.0261,-1.35602 v -1.35602 l -0.0261,-1.35602 -0.0521,-1.35598 -0.0779,-1.35602 -0.10333,-1.35602 -0.12848,-1.35599 -0.15314,-1.35602 -0.17728,-1.35601 -0.2008,-1.35599 -0.2237,-1.35602 -0.24591,-1.35602 -0.26736,-1.35602 -0.28803,-1.35598 -0.30798,-1.35602 -0.32709,-1.35602 -0.34543,-1.35599 -0.36294,-1.35602 -0.3797,-1.35601 -0.39569,-1.35602 -0.41092,-1.35599 -0.42539,-1.35602 -0.43917,-1.35602 -0.45227,-1.35598 -0.4647,-1.35602 -0.47647,-1.35602"
         stroke-opacity="1"
         stroke-linejoin="bevel"
         stroke-miterlimit="10"
         stroke-dasharray="none"
         clip-path="url(#gWoEzXPrCThL)"
         id="path81" />
      <path
         fill="none"
         stroke="#000000"
         paint-order="fill"
         d="m 317.3121,358.72223 -0.93777,-1.35602 -0.91403,-1.35602 -0.88907,-1.35598 -0.86283,-1.35602 -0.83526,-1.35602 -0.80631,-1.35599 -0.77597,-1.35602 -0.74414,-1.35601 -0.7109,-1.35602 -0.67612,-1.35599 -0.63986,-1.35602 -0.60208,-1.35602 -0.56281,-1.35598 -0.52206,-1.35602 -0.47992,-1.35602 -0.43634,-1.35602 -0.39154,-1.35599 -0.34546,-1.35601 -0.29831,-1.35602 -0.25019,-1.35599 -0.2012,-1.35602 -0.15152,-1.35602 -0.10132,-1.35598 -0.0507,-1.35602 v -1.35602 l 0.0507,-1.35602 0.10132,-1.35598 0.15152,-1.35602 0.2012,-1.35602 0.25019,-1.35599 0.29831,-1.35602 0.34546,-1.35601 0.39154,-1.35599 0.43634,-1.35602 0.47992,-1.35602 0.52206,-1.35602 0.56281,-1.35598 0.60208,-1.35602 0.63986,-1.35602 0.67612,-1.35599 0.7109,-1.35602 0.74414,-1.35601 0.77597,-1.35602 0.80631,-1.35599 0.83526,-1.35602 0.86283,-1.35602 0.88907,-1.35598 0.91403,-1.35602 0.93777,-1.35602"
         stroke-opacity="1"
         stroke-linejoin="bevel"
         stroke-miterlimit="10"
         stroke-dasharray="none"
         clip-path="url(#gWoEzXPrCThL)"
         id="path83" />
      <path
         fill="none"
         stroke="#000000"
         paint-order="fill"
         d="m 342.12769,292.27777 -4.54465,-8.53094 -5.54721,-8.00919 -6.4805,-7.38727 -7.33277,-6.67309 -8.09338,-5.87551 -8.7529,-5.00448 -9.30301,-4.07093 -9.73681,-3.08648 -10.04901,-2.06348 -10.2356,-1.01469 -10.29427,0.0468 -10.22429,1.10768 -10.02653,2.15471 -9.70348,3.17485 -9.25917,4.15527 -8.69912,5.08381 -8.0304,5.94877 -7.26131,6.73941 -6.40146,7.44583 -5.4616,8.05921 -4.45353,8.57187 -3.38977,8.97738 -2.28366,9.27072 -1.14901,9.44819 v 9.50762 l 1.14901,9.44819 2.28366,9.27072 3.38977,8.97738 4.45353,8.57187 5.4616,8.05921 6.40146,7.44583 7.26131,6.73941 8.0304,5.94879 8.69912,5.08377 9.25917,4.1553 9.70348,3.17484 10.02653,2.15472 10.22429,1.10767 10.29427,0.0468 10.2356,-1.01468 10.04901,-2.0635 9.73681,-3.08649 9.30301,-4.07089 8.7529,-5.00449 8.09338,-5.87552 7.33277,-6.67309 6.4805,-7.38727 5.54721,-8.00919 4.54465,-8.53094"
         stroke-opacity="1"
         stroke-linejoin="bevel"
         stroke-miterlimit="10"
         stroke-dasharray="none"
         clip-path="url(#gWoEzXPrCThL)"
         id="path85" />
      <path
         style="fill:none;stroke:#ff0000;stroke-width:1;stroke-dasharray:3, 3;stroke-dashoffset:0;stroke-opacity:1"
         d="M 356.08169,334.40796 321.19671,322.64108"
         id="path611"
         sodipodi:nodetypes="cc" />
      <path
         style="fill:none;stroke:#ff0000;stroke-width:1;stroke-dasharray:3, 3;stroke-dashoffset:0;stroke-opacity:1"
         d="m 355.59622,316.62424 -34.88498,11.76688"
         id="path611-9"
         sodipodi:nodetypes="cc" />
    </g>
    <g
       id="g2429"
       transform="translate(9.8305566,86.18113)">
      <path
         fill="#000000"
         stroke="none"
         paint-order="stroke"
         d="m 262.42856,325.5 a 1.5,1.5 0 0 1 -3,0 1.5,1.5 0 0 1 3,0"
         fill-opacity="1"
         clip-path="url(#VSWQzkFilEGo)"
         id="path1705" />
      <path
         fill="none"
         stroke="rgb(0,0,255)"
         paint-order="fill"
         d="m 444.35715,325.5 h -82.176 -4.03543 -23.112 -10.56549 -15.84823 15.84823 10.56549 23.112 4.03543"
         stroke-opacity="1"
         stroke-linejoin="bevel"
         stroke-miterlimit="10"
         stroke-dasharray="none"
         clip-path="url(#wecwtJMpNpBJ)"
         id="path1707"
         style="stroke:#ff0000;stroke-opacity:1"
         sodipodi:nodetypes="cccccccccc" />
      <path
         fill="none"
         stroke="#ff0000"
         paint-order="fill"
         d="m 444.35715,318.66803 h -82.67707 l -4.11953,0.13376 -22.78852,0.66675 -10.3038,0.32205 -15.47397,0.54324 15.47397,4.42105 10.52942,2.97776 22.13589,6.56207 3.97782,1.1669 85.14574,28.67133"
         stroke-opacity="1"
         stroke-linejoin="bevel"
         stroke-miterlimit="10"
         stroke-dasharray="none"
         clip-path="url(#dJWPIDCCiHBp)"
         id="path1709"
         sodipodi:nodetypes="ccccccccccc" />
      <path
         fill="none"
         stroke="#ff0000"
         paint-order="fill"
         d="m 444.35715,332.33197 h -82.67707 l -4.11953,-0.13376 -22.78852,-0.66675 -10.3038,-0.32205 -15.47397,-0.54324 15.47397,-4.42105 10.52942,-2.97776 22.13589,-6.56207 3.97782,-1.1669 81.46682,-27.2073"
         stroke-opacity="1"
         stroke-linejoin="bevel"
         stroke-miterlimit="10"
         stroke-dasharray="none"
         clip-path="url(#dJWPIDCCiHBp)"
         id="path1711"
         sodipodi:nodetypes="ccccccccccc" />
      <path
         fill="none"
         stroke="#000000"
         paint-order="fill"
         d="m 349.10229,358.72223 1.1601,-1.35602 1.08929,-1.35602 1.02256,-1.35598 0.95932,-1.35602 0.89917,-1.35602 0.8417,-1.35599 0.78668,-1.35602 0.73371,-1.35601 0.68265,-1.35602 0.63327,-1.35599 0.58529,-1.35602 0.53873,-1.35602 0.49329,-1.35598 0.44885,-1.35602 0.40539,-1.35602 0.36271,-1.35602 0.32073,-1.35599 0.27936,-1.35601 0.23853,-1.35602 0.19812,-1.35599 0.15808,-1.35602 0.11832,-1.35602 0.0787,-1.35598 0.0394,-1.35602 v -1.35602 l -0.0394,-1.35602 -0.0787,-1.35598 -0.11832,-1.35602 -0.15808,-1.35602 -0.19812,-1.35599 -0.23853,-1.35602 -0.27936,-1.35601 -0.32073,-1.35599 -0.36271,-1.35602 -0.40539,-1.35602 -0.44885,-1.35602 -0.49329,-1.35598 -0.53873,-1.35602 -0.58529,-1.35602 -0.63327,-1.35599 -0.68265,-1.35602 -0.73371,-1.35601 -0.78668,-1.35602 -0.8417,-1.35599 -0.89917,-1.35602 -0.95932,-1.35602 -1.02256,-1.35598 -1.08929,-1.35602 -1.1601,-1.35602"
         stroke-opacity="1"
         stroke-linejoin="bevel"
         stroke-miterlimit="10"
         stroke-dasharray="none"
         clip-path="url(#xvmywRVIHIKJ)"
         id="path1713" />
      <path
         fill="none"
         stroke="#000000"
         paint-order="fill"
         d="m 341.73682,358.72223 1.51117,-1.35602 1.40643,-1.35602 1.31009,-1.35598 1.22079,-1.35602 1.13745,-1.35602 1.05918,-1.35599 0.98529,-1.35602 0.91516,-1.35601 0.8483,-1.35602 0.78433,-1.35599 0.72281,-1.35602 0.66348,-1.35602 0.60614,-1.35598 0.55038,-1.35602 0.49619,-1.35602 0.44321,-1.35602 0.39135,-1.35599 0.34049,-1.35601 0.2904,-1.35602 0.241,-1.35599 0.19214,-1.35602 0.14374,-1.35602 0.0956,-1.35598 0.0478,-1.35602 v -1.35602 l -0.0478,-1.35602 -0.0956,-1.35598 -0.14374,-1.35602 -0.19214,-1.35602 -0.241,-1.35599 -0.2904,-1.35602 -0.34049,-1.35601 -0.39135,-1.35599 -0.44321,-1.35602 -0.49619,-1.35602 -0.55038,-1.35602 -0.60614,-1.35598 -0.66348,-1.35602 -0.72281,-1.35602 -0.78433,-1.35599 -0.8483,-1.35602 -0.91516,-1.35601 -0.98529,-1.35602 -1.05918,-1.35599 -1.13745,-1.35602 -1.22079,-1.35602 -1.31009,-1.35598 -1.40643,-1.35602 -1.51117,-1.35602"
         stroke-opacity="1"
         stroke-linejoin="bevel"
         stroke-miterlimit="10"
         stroke-dasharray="none"
         clip-path="url(#xvmywRVIHIKJ)"
         id="path1715" />
      <path
         fill="none"
         stroke="#000000"
         paint-order="fill"
         d="m 328.16492,358.72223 0.48596,-1.35602 0.47394,-1.35602 0.46124,-1.35598 0.44788,-1.35602 0.43383,-1.35602 0.41907,-1.35599 0.40353,-1.35602 0.38727,-1.35601 0.37015,-1.35602 0.3523,-1.35599 0.33358,-1.35602 0.31409,-1.35602 0.29376,-1.35598 0.27268,-1.35602 0.25076,-1.35602 0.22815,-1.35602 0.2048,-1.35599 0.18079,-1.35601 0.15619,-1.35602 0.13101,-1.35599 0.10541,-1.35602 0.0794,-1.35602 0.0531,-1.35598 0.0266,-1.35602 v -1.35602 l -0.0266,-1.35602 -0.0531,-1.35598 -0.0794,-1.35602 -0.10541,-1.35602 -0.13101,-1.35599 -0.15619,-1.35602 -0.18079,-1.35601 -0.2048,-1.35599 -0.22815,-1.35602 -0.25076,-1.35602 -0.27268,-1.35602 -0.29376,-1.35598 -0.31409,-1.35602 -0.33358,-1.35602 -0.3523,-1.35599 -0.37015,-1.35602 -0.38727,-1.35601 -0.40353,-1.35602 -0.41907,-1.35599 -0.43383,-1.35602 -0.44788,-1.35602 -0.46124,-1.35598 -0.47394,-1.35602 -0.48596,-1.35602"
         stroke-opacity="1"
         stroke-linejoin="bevel"
         stroke-miterlimit="10"
         stroke-dasharray="none"
         clip-path="url(#xvmywRVIHIKJ)"
         id="path1717" />
      <path
         fill="none"
         stroke="#000000"
         paint-order="fill"
         d="m 322.07407,358.72223 -0.95639,-1.35602 -0.93219,-1.35602 -0.90671,-1.35598 -0.87998,-1.35602 -0.85183,-1.35602 -0.82233,-1.35599 -0.79138,-1.35602 -0.75894,-1.35601 -0.72501,-1.35602 -0.68954,-1.35599 -0.65256,-1.35602 -0.61405,-1.35602 -0.57397,-1.35598 -0.53244,-1.35602 -0.48944,-1.35602 -0.44501,-1.35602 -0.39929,-1.35599 -0.35236,-1.35601 -0.30423,-1.35602 -0.25515,-1.35599 -0.20517,-1.35602 -0.15454,-1.35602 -0.10334,-1.35598 -0.0518,-1.35602 v -1.35602 l 0.0518,-1.35602 0.10334,-1.35598 0.15454,-1.35602 0.20517,-1.35602 0.25515,-1.35599 0.30423,-1.35602 0.35236,-1.35601 0.39929,-1.35599 0.44501,-1.35602 0.48944,-1.35602 0.53244,-1.35602 0.57397,-1.35598 0.61405,-1.35602 0.65256,-1.35602 0.68954,-1.35599 0.72501,-1.35602 0.75894,-1.35601 0.79138,-1.35602 0.82233,-1.35599 0.85183,-1.35602 0.87998,-1.35602 0.90671,-1.35598 0.93219,-1.35602 0.95639,-1.35602"
         stroke-opacity="1"
         stroke-linejoin="bevel"
         stroke-miterlimit="10"
         stroke-dasharray="none"
         clip-path="url(#xvmywRVIHIKJ)"
         id="path1719" />
      <path
         fill="none"
         stroke="#000000"
         paint-order="fill"
         d="m 347.38242,292.27777 -4.63489,-8.53094 -5.65738,-8.00919 -6.60919,-7.38727 -7.47837,-6.67309 -8.25409,-5.87551 -8.92669,-5.00448 -9.48773,-4.07093 -9.93018,-3.08648 -10.24857,-2.06348 -10.43884,-1.01469 -10.49867,0.0468 -10.42731,1.10768 -10.22563,2.15471 -9.89616,3.17485 -9.44303,4.15527 -8.87187,5.08381 -8.18985,5.94877 -7.40549,6.73941 -6.52858,7.44583 -5.57006,8.05921 -4.54195,8.57187 -3.45709,8.97738 -2.32901,9.27072 -1.17183,9.44819 v 9.50762 l 1.17183,9.44819 2.32901,9.27072 3.45709,8.97738 4.54195,8.57187 5.57006,8.05921 6.52858,7.44583 7.40549,6.73941 8.18985,5.94879 8.87187,5.08377 9.44303,4.1553 9.89616,3.17484 10.22563,2.15472 10.42731,1.10767 10.49867,0.0468 10.43884,-1.01468 10.24857,-2.0635 9.93018,-3.08649 9.48773,-4.07089 8.92669,-5.00449 8.25409,-5.87552 7.47837,-6.67309 6.60919,-7.38727 5.65738,-8.00919 4.63489,-8.53094"
         stroke-opacity="1"
         stroke-linejoin="bevel"
         stroke-miterlimit="10"
         stroke-dasharray="none"
         clip-path="url(#xvmywRVIHIKJ)"
         id="path1721" />
      <path
         style="fill:none;stroke:#000000;stroke-dasharray:none;stroke-opacity:1"
         d="m 154.43244,325.5 h 302.86"
         id="path2289"
         sodipodi:nodetypes="cc" />
    </g>
    <path
       style="fill:none;stroke:#000000;stroke-width:1;stroke-dasharray:3, 3;stroke-dashoffset:0;stroke-opacity:1"
       d="M 339.00267,106.49156 V 517.82097"
       id="path2648" />
    <path
       style="fill:none;stroke:#000000;stroke-width:1;stroke-dasharray:3, 3;stroke-dashoffset:0;stroke-opacity:1"
       d="M 675.72352,106.49156 V 517.82097"
       id="path2648-6" />
    <path
       style="fill:none;stroke:#ff0000;stroke-width:1;stroke-dasharray:none;stroke-dashoffset:0;stroke-opacity:1;marker-start:url(#marker7313-3)"
       d="m 724.96462,419.05618 1.22094,0.40697"
       id="path7100-7"
       sodipodi:nodetypes="cc" />
    <path
       style="fill:none;stroke:#ff0000;stroke-width:1;stroke-dasharray:none;stroke-dashoffset:0;stroke-opacity:1;marker-start:url(#marker7313-3-9)"
       d="m 724.49348,407.29991 1.22094,-0.40697"
       id="path7100-7-4"
       sodipodi:nodetypes="cc" />
    <path
       style="fill:none;stroke:#ff0000;stroke-width:1;stroke-dasharray:none;stroke-dashoffset:0;stroke-opacity:1;marker-start:url(#marker7313-3-8)"
       d="m 770.46666,385.18826 -1.22094,0.40697"
       id="path7100-7-5"
       sodipodi:nodetypes="cc" />
    <path
       style="fill:none;stroke:#ff0000;stroke-width:1;stroke-dasharray:none;stroke-dashoffset:0;stroke-opacity:1;marker-start:url(#marker7313-3-8-2)"
       d="m 769.13483,440.80643 -1.22094,-0.40697"
       id="path7100-7-5-1"
       sodipodi:nodetypes="cc" />
    <g
       id="g10522"
       transform="translate(351.67735,-123.86862)">
      <path
         fill="#000000"
         stroke="none"
         paint-order="stroke"
         d="m 258.85715,336.5 a 1.5,1.5 0 0 1 -3,0 1.5,1.5 0 0 1 3,0"
         fill-opacity="1"
         clip-path="url(#biMKrORkWrbm)"
         id="path8859" />
      <path
         fill="none"
         stroke="#ff0000"
         paint-order="fill"
         d="m 437.21429,316.80054 h -84.48602 l -4.60458,0.458 -20.02835,1.79599 18.03515,-5.43426 4.47831,-1.37906 106.94491,-25.57736"
         stroke-opacity="1"
         stroke-linejoin="bevel"
         stroke-miterlimit="10"
         stroke-dasharray="none"
         clip-path="url(#SlmwaKEpIfGd)"
         id="path8863"
         sodipodi:nodetypes="ccccccc" />
      <path
         fill="none"
         stroke="#ff0000"
         paint-order="fill"
         d="m 437.21429,359.28305 h -85.86105 l -4.82712,-0.56473 -19.05114,-2.00973 16.72329,5.62246 4.62641,1.59229 103.49829,24.35088"
         stroke-opacity="1"
         stroke-linejoin="bevel"
         stroke-miterlimit="10"
         stroke-dasharray="none"
         clip-path="url(#SlmwaKEpIfGd)"
         id="path8865"
         sodipodi:nodetypes="ccccccc" />
      <path
         fill="none"
         stroke="#000000"
         paint-order="fill"
         d="m 343.81409,370.94446 1.13751,-1.40592 1.06808,-1.40588 1.00263,-1.40591 0.94064,-1.40589 0.88169,-1.40588 0.82531,-1.40592 0.77136,-1.40588 0.71943,-1.40591 0.66937,-1.40589 0.62091,-1.40588 0.57391,-1.40592 0.52823,-1.40588 0.48367,-1.40591 0.44013,-1.40589 0.39749,-1.40588 0.35565,-1.40592 0.31449,-1.40588 0.27392,-1.40588 0.23389,-1.40592 0.19427,-1.40588 0.155,-1.40592 0.116,-1.40588 0.0772,-1.40588 0.0386,-1.40592 v -1.40588 l -0.0386,-1.40592 -0.0772,-1.40588 -0.116,-1.40588 -0.155,-1.40592 -0.19427,-1.40588 -0.23389,-1.40592 -0.27392,-1.40588 -0.31449,-1.40588 -0.35565,-1.40592 -0.39749,-1.40588 -0.44013,-1.40589 -0.48367,-1.40591 -0.52823,-1.40588 -0.57391,-1.40592 -0.62091,-1.40588 -0.66937,-1.40589 -0.71943,-1.40591 -0.77136,-1.40588 -0.82531,-1.40592 -0.88169,-1.40588 -0.94064,-1.40589 -1.00263,-1.40591 -1.06808,-1.40588 -1.13751,-1.40592"
         stroke-opacity="1"
         stroke-linejoin="bevel"
         stroke-miterlimit="10"
         stroke-dasharray="none"
         clip-path="url(#CHSNPppozXoZ)"
         id="path8867" />
      <path
         fill="none"
         stroke="#000000"
         paint-order="fill"
         d="m 336.59201,370.94446 1.48175,-1.40592 1.37903,-1.40588 1.28461,-1.40591 1.19702,-1.40589 1.11529,-1.40588 1.03858,-1.40592 0.96609,-1.40588 0.89734,-1.40591 0.83179,-1.40589 0.76904,-1.40588 0.70874,-1.40592 0.65058,-1.40588 0.59433,-1.40591 0.5397,-1.40589 0.48648,-1.40588 0.4346,-1.40592 0.38373,-1.40588 0.33386,-1.40588 0.28473,-1.40592 0.2363,-1.40588 0.18841,-1.40592 0.14093,-1.40588 0.0938,-1.40588 0.0469,-1.40592 v -1.40588 l -0.0469,-1.40592 -0.0938,-1.40588 -0.14093,-1.40588 -0.18841,-1.40592 -0.2363,-1.40588 -0.28473,-1.40592 -0.33386,-1.40588 -0.38373,-1.40588 -0.4346,-1.40592 -0.48648,-1.40588 -0.5397,-1.40589 -0.59433,-1.40591 -0.65058,-1.40588 -0.70874,-1.40592 -0.76904,-1.40588 -0.83179,-1.40589 -0.89734,-1.40591 -0.96609,-1.40588 -1.03858,-1.40592 -1.11529,-1.40588 -1.19702,-1.40589 -1.28461,-1.40591 -1.37903,-1.40588 -1.48175,-1.40592"
         stroke-opacity="1"
         stroke-linejoin="bevel"
         stroke-miterlimit="10"
         stroke-dasharray="none"
         clip-path="url(#CHSNPppozXoZ)"
         id="path8869" />
      <path
         fill="none"
         stroke="#000000"
         paint-order="fill"
         d="m 323.28439,370.94446 0.47647,-1.40592 0.4647,-1.40588 0.45227,-1.40591 0.43917,-1.40589 0.42539,-1.40588 0.41092,-1.40592 0.39569,-1.40588 0.3797,-1.40591 0.36294,-1.40589 0.34543,-1.40588 0.32709,-1.40592 0.30798,-1.40588 0.28803,-1.40591 0.26736,-1.40589 0.24591,-1.40588 0.2237,-1.40592 0.2008,-1.40588 0.17728,-1.40588 0.15314,-1.40592 0.12848,-1.40588 0.10333,-1.40592 0.0779,-1.40588 0.0521,-1.40588 0.0261,-1.40592 v -1.40588 l -0.0261,-1.40592 -0.0521,-1.40588 -0.0779,-1.40588 -0.10333,-1.40592 -0.12848,-1.40588 -0.15314,-1.40592 -0.17728,-1.40588 -0.2008,-1.40588 -0.2237,-1.40592 -0.24591,-1.40588 -0.26736,-1.40589 -0.28803,-1.40591 -0.30798,-1.40588 -0.32709,-1.40592 -0.34543,-1.40588 -0.36294,-1.40589 -0.3797,-1.40591 -0.39569,-1.40588 -0.41092,-1.40592 -0.42539,-1.40588 -0.43917,-1.40589 -0.45227,-1.40591 -0.4647,-1.40588 -0.47647,-1.40592"
         stroke-opacity="1"
         stroke-linejoin="bevel"
         stroke-miterlimit="10"
         stroke-dasharray="none"
         clip-path="url(#CHSNPppozXoZ)"
         id="path8871" />
      <path
         fill="none"
         stroke="#000000"
         paint-order="fill"
         d="m 317.3121,370.94446 -0.93777,-1.40592 -0.91403,-1.40588 -0.88907,-1.40591 -0.86283,-1.40589 -0.83526,-1.40588 -0.80631,-1.40592 -0.77597,-1.40588 -0.74414,-1.40591 -0.7109,-1.40589 -0.67612,-1.40588 -0.63986,-1.40592 -0.60208,-1.40588 -0.56281,-1.40591 -0.52206,-1.40589 -0.47992,-1.40588 -0.43634,-1.40592 -0.39154,-1.40588 -0.34546,-1.40588 -0.29831,-1.40592 -0.25019,-1.40588 -0.2012,-1.40592 -0.15152,-1.40588 -0.10132,-1.40588 -0.0507,-1.40592 v -1.40588 l 0.0507,-1.40592 0.10132,-1.40588 0.15152,-1.40588 0.2012,-1.40592 0.25019,-1.40588 0.29831,-1.40592 0.34546,-1.40588 0.39154,-1.40588 0.43634,-1.40592 0.47992,-1.40588 0.52206,-1.40589 0.56281,-1.40591 0.60208,-1.40588 0.63986,-1.40592 0.67612,-1.40588 0.7109,-1.40589 0.74414,-1.40591 0.77597,-1.40588 0.80631,-1.40592 0.83526,-1.40588 0.86283,-1.40589 0.88907,-1.40591 0.91403,-1.40588 0.93777,-1.40592"
         stroke-opacity="1"
         stroke-linejoin="bevel"
         stroke-miterlimit="10"
         stroke-dasharray="none"
         clip-path="url(#CHSNPppozXoZ)"
         id="path8873" />
      <path
         fill="none"
         stroke="#000000"
         paint-order="fill"
         d="m 342.12769,302.05554 -4.54465,-8.84479 -5.54721,-8.30383 -6.4805,-7.65906 -7.33277,-6.91858 -8.09338,-6.09167 -8.7529,-5.1886 -9.30301,-4.22067 -9.73681,-3.20004 -10.04901,-2.13939 -10.2356,-1.05202 -10.29427,0.0485 -10.22429,1.14842 -10.02653,2.23399 -9.70348,3.29163 -9.25917,4.30815 -8.69912,5.27084 -8.0304,6.16761 -7.26131,6.98736 -6.40146,7.71976 -5.4616,8.35571 -4.45353,8.88721 -3.38977,9.30765 -2.28366,9.61178 -1.14901,9.79581 v 9.85736 l 1.14901,9.79581 2.28366,9.61178 3.38977,9.30765 4.45353,8.88721 5.4616,8.35571 6.40146,7.71976 7.26131,6.98736 8.0304,6.16761 8.69912,5.27084 9.25917,4.30814 9.70348,3.29165 10.02653,2.23398 10.22429,1.14844 10.29427,0.0485 10.2356,-1.052 10.04901,-2.13941 9.73681,-3.20004 9.30301,-4.22067 8.7529,-5.1886 8.09338,-6.09167 7.33277,-6.91858 6.4805,-7.65906 5.54721,-8.30383 4.54465,-8.84479"
         stroke-opacity="1"
         stroke-linejoin="bevel"
         stroke-miterlimit="10"
         stroke-dasharray="none"
         clip-path="url(#CHSNPppozXoZ)"
         id="path8875" />
      <path
         style="fill:none;stroke:#ff0000;stroke-width:1;stroke-dasharray:3, 3;stroke-dashoffset:0"
         d="m 234.14614,323.52968 95.33961,33.39096"
         id="path9078-1"
         sodipodi:nodetypes="cc" />
      <path
         style="fill:none;stroke:#ff0000;stroke-width:1;stroke-dasharray:2.99999, 2.99999;stroke-dashoffset:0"
         d="m 234.3907,349.05141 94.94713,-30.75234"
         id="path9078-1-7"
         sodipodi:nodetypes="cc" />
      <path
         style="fill:none;stroke:#000000;stroke-width:1;stroke-dasharray:none;stroke-dashoffset:0;stroke-opacity:1"
         d="M 174.58263,336.5 H 435.77066"
         id="path10215"
         sodipodi:nodetypes="cc" />
    </g>
    <g
       id="g6110"
       transform="translate(316.09689,-114.23307)">
      <g
         id="g7063"
         transform="translate(31.834746,200.4142)">
        <path
           style="fill:none;stroke:#030000;stroke-width:1;stroke-dasharray:none;stroke-opacity:1"
           d="m 179.99652,325.5002 281.51625,-3.6e-4"
           id="path1231-9"
           sodipodi:nodetypes="cc" />
        <path
           fill="#000000"
           stroke="none"
           paint-order="stroke"
           d="m 262.42856,325.5 a 1.5,1.5 0 0 1 -3,0 1.5,1.5 0 0 1 3,0"
           fill-opacity="1"
           clip-path="url(#RzWnQhstlgDE-6)"
           id="path5471" />
        <path
           fill="none"
           stroke="#0000ff"
           paint-order="fill"
           d="m 444.35715,325.5 h -82.176 -4.03543 -23.112 23.112 4.03543"
           stroke-opacity="1"
           stroke-linejoin="bevel"
           stroke-miterlimit="10"
           stroke-dasharray="none"
           clip-path="url(#xhsTloWGEMGu-7)"
           id="path5473"
           sodipodi:nodetypes="cccccc"
           style="stroke:#ff0000;stroke-opacity:1" />
        <path
           fill="none"
           stroke="#ff0000"
           paint-order="fill"
           d="m 444.35715,353.79816 -82.3468,-24.30426 -3.98719,-0.92298 -23.03027,-5.4472 22.10266,-6.58072 3.9791,-1.17267 85.0368,-28.51227"
           stroke-opacity="1"
           stroke-linejoin="bevel"
           stroke-miterlimit="10"
           stroke-dasharray="none"
           clip-path="url(#txcQxkcLHybT-7)"
           id="path5475"
           sodipodi:nodetypes="ccccccc" />
        <path
           fill="none"
           stroke="#ff0000"
           paint-order="fill"
           d="m 444.35715,297.20184 -82.3468,24.30426 -3.98719,0.92298 -23.03027,5.4472 22.10266,6.58072 3.9791,1.17267 83.0119,28.10168"
           stroke-opacity="1"
           stroke-linejoin="bevel"
           stroke-miterlimit="10"
           stroke-dasharray="none"
           clip-path="url(#txcQxkcLHybT-7)"
           id="path5477"
           sodipodi:nodetypes="ccccccc" />
        <path
           fill="none"
           stroke="#000000"
           paint-order="fill"
           d="m 349.10229,358.72223 1.1601,-1.35602 1.08929,-1.35602 1.02256,-1.35598 0.95932,-1.35602 0.89917,-1.35602 0.8417,-1.35599 0.78668,-1.35602 0.73371,-1.35601 0.68265,-1.35602 0.63327,-1.35599 0.58529,-1.35602 0.53873,-1.35602 0.49329,-1.35598 0.44885,-1.35602 0.40539,-1.35602 0.36271,-1.35602 0.32073,-1.35599 0.27936,-1.35601 0.23853,-1.35602 0.19812,-1.35599 0.15808,-1.35602 0.11832,-1.35602 0.0787,-1.35598 0.0394,-1.35602 v -1.35602 l -0.0394,-1.35602 -0.0787,-1.35598 -0.11832,-1.35602 -0.15808,-1.35602 -0.19812,-1.35599 -0.23853,-1.35602 -0.27936,-1.35601 -0.32073,-1.35599 -0.36271,-1.35602 -0.40539,-1.35602 -0.44885,-1.35602 -0.49329,-1.35598 -0.53873,-1.35602 -0.58529,-1.35602 -0.63327,-1.35599 -0.68265,-1.35602 -0.73371,-1.35601 -0.78668,-1.35602 -0.8417,-1.35599 -0.89917,-1.35602 -0.95932,-1.35602 -1.02256,-1.35598 -1.08929,-1.35602 -1.1601,-1.35602"
           stroke-opacity="1"
           stroke-linejoin="bevel"
           stroke-miterlimit="10"
           stroke-dasharray="none"
           clip-path="url(#lWknKVDckufe-3)"
           id="path5479" />
        <path
           fill="none"
           stroke="#000000"
           paint-order="fill"
           d="m 341.73682,358.72223 1.51117,-1.35602 1.40643,-1.35602 1.31009,-1.35598 1.22079,-1.35602 1.13745,-1.35602 1.05918,-1.35599 0.98529,-1.35602 0.91516,-1.35601 0.8483,-1.35602 0.78433,-1.35599 0.72281,-1.35602 0.66348,-1.35602 0.60614,-1.35598 0.55038,-1.35602 0.49619,-1.35602 0.44321,-1.35602 0.39135,-1.35599 0.34049,-1.35601 0.2904,-1.35602 0.241,-1.35599 0.19214,-1.35602 0.14374,-1.35602 0.0956,-1.35598 0.0478,-1.35602 v -1.35602 l -0.0478,-1.35602 -0.0956,-1.35598 -0.14374,-1.35602 -0.19214,-1.35602 -0.241,-1.35599 -0.2904,-1.35602 -0.34049,-1.35601 -0.39135,-1.35599 -0.44321,-1.35602 -0.49619,-1.35602 -0.55038,-1.35602 -0.60614,-1.35598 -0.66348,-1.35602 -0.72281,-1.35602 -0.78433,-1.35599 -0.8483,-1.35602 -0.91516,-1.35601 -0.98529,-1.35602 -1.05918,-1.35599 -1.13745,-1.35602 -1.22079,-1.35602 -1.31009,-1.35598 -1.40643,-1.35602 -1.51117,-1.35602"
           stroke-opacity="1"
           stroke-linejoin="bevel"
           stroke-miterlimit="10"
           stroke-dasharray="none"
           clip-path="url(#lWknKVDckufe-3)"
           id="path5481" />
        <path
           fill="none"
           stroke="#000000"
           paint-order="fill"
           d="m 328.16492,358.72223 0.48596,-1.35602 0.47394,-1.35602 0.46124,-1.35598 0.44788,-1.35602 0.43383,-1.35602 0.41907,-1.35599 0.40353,-1.35602 0.38727,-1.35601 0.37015,-1.35602 0.3523,-1.35599 0.33358,-1.35602 0.31409,-1.35602 0.29376,-1.35598 0.27268,-1.35602 0.25076,-1.35602 0.22815,-1.35602 0.2048,-1.35599 0.18079,-1.35601 0.15619,-1.35602 0.13101,-1.35599 0.10541,-1.35602 0.0794,-1.35602 0.0531,-1.35598 0.0266,-1.35602 v -1.35602 l -0.0266,-1.35602 -0.0531,-1.35598 -0.0794,-1.35602 -0.10541,-1.35602 -0.13101,-1.35599 -0.15619,-1.35602 -0.18079,-1.35601 -0.2048,-1.35599 -0.22815,-1.35602 -0.25076,-1.35602 -0.27268,-1.35602 -0.29376,-1.35598 -0.31409,-1.35602 -0.33358,-1.35602 -0.3523,-1.35599 -0.37015,-1.35602 -0.38727,-1.35601 -0.40353,-1.35602 -0.41907,-1.35599 -0.43383,-1.35602 -0.44788,-1.35602 -0.46124,-1.35598 -0.47394,-1.35602 -0.48596,-1.35602"
           stroke-opacity="1"
           stroke-linejoin="bevel"
           stroke-miterlimit="10"
           stroke-dasharray="none"
           clip-path="url(#lWknKVDckufe-3)"
           id="path5483" />
        <path
           fill="none"
           stroke="#000000"
           paint-order="fill"
           d="m 322.07407,358.72223 -0.95639,-1.35602 -0.93219,-1.35602 -0.90671,-1.35598 -0.87998,-1.35602 -0.85183,-1.35602 -0.82233,-1.35599 -0.79138,-1.35602 -0.75894,-1.35601 -0.72501,-1.35602 -0.68954,-1.35599 -0.65256,-1.35602 -0.61405,-1.35602 -0.57397,-1.35598 -0.53244,-1.35602 -0.48944,-1.35602 -0.44501,-1.35602 -0.39929,-1.35599 -0.35236,-1.35601 -0.30423,-1.35602 -0.25515,-1.35599 -0.20517,-1.35602 -0.15454,-1.35602 -0.10334,-1.35598 -0.0518,-1.35602 v -1.35602 l 0.0518,-1.35602 0.10334,-1.35598 0.15454,-1.35602 0.20517,-1.35602 0.25515,-1.35599 0.30423,-1.35602 0.35236,-1.35601 0.39929,-1.35599 0.44501,-1.35602 0.48944,-1.35602 0.53244,-1.35602 0.57397,-1.35598 0.61405,-1.35602 0.65256,-1.35602 0.68954,-1.35599 0.72501,-1.35602 0.75894,-1.35601 0.79138,-1.35602 0.82233,-1.35599 0.85183,-1.35602 0.87998,-1.35602 0.90671,-1.35598 0.93219,-1.35602 0.95639,-1.35602"
           stroke-opacity="1"
           stroke-linejoin="bevel"
           stroke-miterlimit="10"
           stroke-dasharray="none"
           clip-path="url(#lWknKVDckufe-3)"
           id="path5485" />
        <path
           fill="none"
           stroke="#000000"
           paint-order="fill"
           d="m 347.38242,292.27777 -4.63489,-8.53094 -5.65738,-8.00919 -6.60919,-7.38727 -7.47837,-6.67309 -8.25409,-5.87551 -8.92669,-5.00448 -9.48773,-4.07093 -9.93018,-3.08648 -10.24857,-2.06348 -10.43884,-1.01469 -10.49867,0.0468 -10.42731,1.10768 -10.22563,2.15471 -9.89616,3.17485 -9.44303,4.15527 -8.87187,5.08381 -8.18985,5.94877 -7.40549,6.73941 -6.52858,7.44583 -5.57006,8.05921 -4.54195,8.57187 -3.45709,8.97738 -2.32901,9.27072 -1.17183,9.44819 v 9.50762 l 1.17183,9.44819 2.32901,9.27072 3.45709,8.97738 4.54195,8.57187 5.57006,8.05921 6.52858,7.44583 7.40549,6.73941 8.18985,5.94879 8.87187,5.08377 9.44303,4.1553 9.89616,3.17484 10.22563,2.15472 10.42731,1.10767 10.49867,0.0468 10.43884,-1.01468 10.24857,-2.0635 9.93018,-3.08649 9.48773,-4.07089 8.92669,-5.00449 8.25409,-5.87552 7.47837,-6.67309 6.60919,-7.38727 5.65738,-8.00919 4.63489,-8.53094"
           stroke-opacity="1"
           stroke-linejoin="bevel"
           stroke-miterlimit="10"
           stroke-dasharray="none"
           clip-path="url(#lWknKVDckufe-3)"
           id="path5487" />
        <path
           style="fill:none;stroke:#ff0000;stroke-width:1;stroke-dasharray:3.00001, 3.00001;stroke-dashoffset:0;stroke-opacity:1"
           d="m 311.8959,330.71775 23.68855,-7.973"
           id="path6053" />
        <path
           style="fill:none;stroke:#ff0000;stroke-width:1;stroke-dasharray:3.00001, 3.00001;stroke-dashoffset:0;stroke-opacity:1"
           d="m 312.0009,320.37027 23.68855,7.973"
           id="path6053-3" />
      </g>
    </g>
    <text
       xml:space="preserve"
       style="font-size:29.3333px;font-family:Calibri;-inkscape-font-specification:Calibri;fill:none;stroke:#ff0000;stroke-width:1;stroke-dasharray:none;stroke-dashoffset:0;stroke-opacity:1"
       x="170.87566"
       y="119.20367"
       id="text11798"><tspan
         sodipodi:role="line"
         id="tspan11796"
         x="170.87566"
         y="119.20367"
         style="fill:#000000;fill-opacity:1;stroke:none;stroke-opacity:1">P1</tspan></text>
    <text
       xml:space="preserve"
       style="font-size:29.3333px;font-family:Calibri;-inkscape-font-specification:Calibri;fill:none;stroke:#ff0000;stroke-width:1;stroke-dasharray:none;stroke-dashoffset:0;stroke-opacity:1"
       x="170.50327"
       y="327.50592"
       id="text11798-8"><tspan
         sodipodi:role="line"
         id="tspan11796-8"
         x="170.50327"
         y="327.50592"
         style="fill:#000000;fill-opacity:1;stroke:none;stroke-opacity:1">P4</tspan></text>
    <text
       xml:space="preserve"
       style="font-size:29.3333px;font-family:Calibri;-inkscape-font-specification:Calibri;fill:none;stroke:#ff0000;stroke-width:1;stroke-dasharray:none;stroke-dashoffset:0;stroke-opacity:1"
       x="503.83057"
       y="119.18218"
       id="text11798-0"><tspan
         sodipodi:role="line"
         id="tspan11796-6"
         x="503.83057"
         y="119.18218"
         style="fill:#000000;fill-opacity:1;stroke:none;stroke-opacity:1">P3</tspan></text>
    <text
       xml:space="preserve"
       style="font-size:29.3333px;font-family:Calibri;-inkscape-font-specification:Calibri;fill:none;stroke:#ff0000;stroke-width:1;stroke-dasharray:none;stroke-dashoffset:0;stroke-opacity:1"
       x="503.83057"
       y="328.10748"
       id="text11798-0-0"><tspan
         sodipodi:role="line"
         id="tspan11796-6-4"
         x="503.83057"
         y="328.10748"
         style="fill:#000000;fill-opacity:1;stroke:none;stroke-opacity:1">P3' </tspan></text>
    <text
       xml:space="preserve"
       style="font-size:29.3333px;font-family:Calibri;-inkscape-font-specification:Calibri;fill:none;stroke:#ff0000;stroke-width:1;stroke-dasharray:none;stroke-dashoffset:0;stroke-opacity:1"
       x="332.9549"
       y="542.89111"
       id="text11798-9"><tspan
         sodipodi:role="line"
         id="tspan11796-4"
         x="332.9549"
         y="542.89111"
         style="fill:#000000;fill-opacity:1;stroke:none;stroke-opacity:1">L</tspan></text>
    <text
       xml:space="preserve"
       style="font-size:29.3333px;font-family:Calibri;-inkscape-font-specification:Calibri;fill:none;stroke:#ff0000;stroke-width:1;stroke-dasharray:none;stroke-dashoffset:0;stroke-opacity:1"
       x="668.55969"
       y="542.9126"
       id="text11798-9-5"><tspan
         sodipodi:role="line"
         id="tspan11796-4-3"
         x="668.55969"
         y="542.9126"
         style="fill:#000000;fill-opacity:1;stroke:none;stroke-opacity:1">L</tspan></text>
  </g>
</svg>
